<svg version="1.1" xmlns="http://www.w3.org/2000/svg" viewBox="0 0 613.77014992986 1475.2761427433734" width="1227.54029985972" height="2950.5522854867468"><!-- svg-source:excalidraw --><metadata></metadata><defs><style class="style-fonts">
      </style></defs><rect x="0" y="0" width="613.77014992986" height="1475.2761427433734" fill="#ffffff"></rect><g stroke-linecap="round" transform="translate(10 10) rotate(0 296.88507496493 296.88507496493)"><path d="M593.77 296.89 C593.77 302.43, 593.61 307.99, 593.3 313.53 C592.99 319.07, 592.52 324.61, 591.9 330.13 C591.28 335.64, 590.5 341.14, 589.58 346.62 C588.65 352.09, 587.56 357.54, 586.33 362.95 C585.09 368.36, 583.7 373.74, 582.17 379.07 C580.63 384.41, 578.94 389.7, 577.11 394.94 C575.28 400.18, 573.29 405.37, 571.17 410.5 C569.05 415.62, 566.78 420.7, 564.37 425.7 C561.96 430.7, 559.41 435.64, 556.73 440.49 C554.04 445.35, 551.22 450.14, 548.26 454.84 C545.31 459.54, 542.22 464.16, 539.01 468.68 C535.8 473.21, 532.46 477.65, 529 481.99 C525.54 486.33, 521.95 490.58, 518.26 494.71 C514.56 498.85, 510.74 502.89, 506.81 506.81 C502.89 510.74, 498.85 514.56, 494.71 518.26 C490.58 521.95, 486.33 525.54, 481.99 529 C477.65 532.46, 473.21 535.8, 468.68 539.01 C464.16 542.22, 459.54 545.31, 454.84 548.26 C450.14 551.22, 445.35 554.04, 440.49 556.73 C435.64 559.41, 430.7 561.96, 425.7 564.37 C420.7 566.78, 415.62 569.05, 410.5 571.17 C405.37 573.29, 400.18 575.28, 394.94 577.11 C389.7 578.94, 384.41 580.63, 379.07 582.17 C373.74 583.7, 368.36 585.09, 362.95 586.33 C357.54 587.56, 352.09 588.65, 346.62 589.58 C341.14 590.5, 335.64 591.28, 330.13 591.9 C324.61 592.52, 319.07 592.99, 313.53 593.3 C307.99 593.61, 302.43 593.77, 296.89 593.77 C291.34 593.77, 285.78 593.61, 280.24 593.3 C274.7 592.99, 269.16 592.52, 263.64 591.9 C258.13 591.28, 252.63 590.5, 247.15 589.58 C241.68 588.65, 236.23 587.56, 230.82 586.33 C225.41 585.09, 220.03 583.7, 214.7 582.17 C209.36 580.63, 204.07 578.94, 198.83 577.11 C193.59 575.28, 188.4 573.29, 183.27 571.17 C178.15 569.05, 173.07 566.78, 168.07 564.37 C163.07 561.96, 158.13 559.41, 153.28 556.73 C148.42 554.04, 143.63 551.22, 138.93 548.26 C134.23 545.31, 129.61 542.22, 125.09 539.01 C120.56 535.8, 116.12 532.46, 111.78 529 C107.44 525.54, 103.19 521.95, 99.06 518.26 C94.92 514.56, 90.88 510.74, 86.96 506.81 C83.03 502.89, 79.21 498.85, 75.52 494.71 C71.82 490.58, 68.23 486.33, 64.77 481.99 C61.31 477.65, 57.97 473.21, 54.76 468.68 C51.55 464.16, 48.46 459.54, 45.51 454.84 C42.55 450.14, 39.73 445.35, 37.04 440.49 C34.36 435.64, 31.81 430.7, 29.4 425.7 C26.99 420.7, 24.72 415.62, 22.6 410.5 C20.48 405.37, 18.49 400.18, 16.66 394.94 C14.83 389.7, 13.14 384.41, 11.6 379.07 C10.07 373.74, 8.68 368.36, 7.44 362.95 C6.21 357.54, 5.12 352.09, 4.19 346.62 C3.27 341.14, 2.49 335.64, 1.87 330.13 C1.25 324.61, 0.78 319.07, 0.47 313.53 C0.16 307.99, 0 302.43, 0 296.89 C0 291.34, 0.16 285.78, 0.47 280.24 C0.78 274.7, 1.25 269.16, 1.87 263.64 C2.49 258.13, 3.27 252.63, 4.19 247.15 C5.12 241.68, 6.21 236.23, 7.44 230.82 C8.68 225.41, 10.07 220.03, 11.6 214.7 C13.14 209.36, 14.83 204.07, 16.66 198.83 C18.49 193.59, 20.48 188.4, 22.6 183.27 C24.72 178.15, 26.99 173.07, 29.4 168.07 C31.81 163.07, 34.36 158.13, 37.04 153.28 C39.73 148.42, 42.55 143.63, 45.51 138.93 C48.46 134.23, 51.55 129.61, 54.76 125.09 C57.97 120.56, 61.31 116.12, 64.77 111.78 C68.23 107.44, 71.82 103.19, 75.52 99.06 C79.21 94.92, 83.03 90.88, 86.96 86.96 C90.88 83.03, 94.92 79.21, 99.06 75.52 C103.19 71.82, 107.44 68.23, 111.78 64.77 C116.12 61.31, 120.56 57.97, 125.09 54.76 C129.61 51.55, 134.23 48.46, 138.93 45.51 C143.63 42.55, 148.42 39.73, 153.28 37.04 C158.13 34.36, 163.07 31.81, 168.07 29.4 C173.07 26.99, 178.15 24.72, 183.27 22.6 C188.4 20.48, 193.59 18.49, 198.83 16.66 C204.07 14.83, 209.36 13.14, 214.7 11.6 C220.03 10.07, 225.41 8.68, 230.82 7.44 C236.23 6.21, 241.68 5.12, 247.15 4.19 C252.63 3.27, 258.13 2.49, 263.64 1.87 C269.16 1.25, 274.7 0.78, 280.24 0.47 C285.78 0.16, 291.34 0, 296.89 0 C302.43 0, 307.99 0.16, 313.53 0.47 C319.07 0.78, 324.61 1.25, 330.13 1.87 C335.64 2.49, 341.14 3.27, 346.62 4.19 C352.09 5.12, 357.54 6.21, 362.95 7.44 C368.36 8.68, 373.74 10.07, 379.07 11.6 C384.41 13.14, 389.7 14.83, 394.94 16.66 C400.18 18.49, 405.37 20.48, 410.5 22.6 C415.62 24.72, 420.7 26.99, 425.7 29.4 C430.7 31.81, 435.64 34.36, 440.49 37.04 C445.35 39.73, 450.14 42.55, 454.84 45.51 C459.54 48.46, 464.16 51.55, 468.68 54.76 C473.21 57.97, 477.65 61.31, 481.99 64.77 C486.33 68.23, 490.58 71.82, 494.71 75.52 C498.85 79.21, 502.89 83.03, 506.81 86.96 C510.74 90.88, 514.56 94.92, 518.26 99.06 C521.95 103.19, 525.54 107.44, 529 111.78 C532.46 116.12, 535.8 120.56, 539.01 125.09 C542.22 129.61, 545.31 134.23, 548.26 138.93 C551.22 143.63, 554.04 148.42, 556.73 153.28 C559.41 158.13, 561.96 163.07, 564.37 168.07 C566.78 173.07, 569.05 178.15, 571.17 183.27 C573.29 188.4, 575.28 193.59, 577.11 198.83 C578.94 204.07, 580.63 209.36, 582.17 214.7 C583.7 220.03, 585.09 225.41, 586.33 230.82 C587.56 236.23, 588.65 241.68, 589.58 247.15 C590.5 252.63, 591.28 258.13, 591.9 263.64 C592.52 269.16, 592.99 274.7, 593.3 280.24 C593.61 285.78, 593.69 294.11, 593.77 296.89 C593.85 299.66, 593.85 294.11, 593.77 296.89" stroke="#000000" stroke-width="4" fill="none"></path></g><g stroke-linecap="round" transform="translate(284.532692717371 604.4969753568711) rotate(0 14.737610966140437 430.3895836932511)"><path d="M0 0 C9.06 0, 18.13 0, 29.48 0 M0 0 C6.75 0, 13.5 0, 29.48 0 M29.48 0 C29.48 177.64, 29.48 355.28, 29.48 860.78 M29.48 0 C29.48 327.38, 29.48 654.75, 29.48 860.78 M29.48 860.78 C20.02 860.78, 10.56 860.78, 0 860.78 M29.48 860.78 C21.54 860.78, 13.6 860.78, 0 860.78 M0 860.78 C0 619.19, 0 377.6, 0 0 M0 860.78 C0 584.78, 0 308.78, 0 0" stroke="#000000" stroke-width="4" fill="none"></path></g><g stroke-linecap="round"><g transform="translate(24.89754964992153 213.94748469071885) rotate(0 288.661684282883 68.41367234435825)"><path d="M0 0 C4.3 11.85, 8.18 67.44, 25.77 71.13 C43.37 74.81, 77.23 18.56, 105.58 22.1 C133.93 25.64, 164.19 89.24, 195.85 92.34 C227.52 95.44, 270.95 33.27, 295.56 40.69 C320.16 48.1, 319.96 128.07, 343.5 136.83 C367.03 145.59, 407.79 93.71, 436.76 93.23 C465.74 92.76, 493.92 137.81, 517.35 134 C540.78 130.19, 567.33 80.96, 577.32 70.35 M0 0 C4.3 11.85, 8.18 67.44, 25.77 71.13 C43.37 74.81, 77.23 18.56, 105.58 22.1 C133.93 25.64, 164.19 89.24, 195.85 92.34 C227.52 95.44, 270.95 33.27, 295.56 40.69 C320.16 48.1, 319.96 128.07, 343.5 136.83 C367.03 145.59, 407.79 93.71, 436.76 93.23 C465.74 92.76, 493.92 137.81, 517.35 134 C540.78 130.19, 567.33 80.96, 577.32 70.35" stroke="#000000" stroke-width="4" fill="none"></path></g></g><mask></mask></svg>