<svg version="1.1" xmlns="http://www.w3.org/2000/svg" viewBox="0 0 252.68150928124487 256.2970486401079" width="505.36301856248974" height="512.5940972802158"><defs><style class="style-fonts">
      </style></defs><rect x="0" y="0" width="252.68150928124487" height="256.2970486401079" fill="transparent"></rect><g stroke-linecap="round" transform="translate(37.2352272904036 39.993197323587566) rotate(0 100.23895572651008 99.84972099625993)"><path d="M200.48 99.85 C200.48 103.11, 200.32 106.39, 200 109.64 C199.67 112.88, 199.19 116.13, 198.55 119.33 C197.91 122.53, 197.11 125.71, 196.16 128.83 C195.21 131.96, 194.1 135.05, 192.85 138.06 C191.59 141.07, 190.19 144.04, 188.64 146.92 C187.1 149.8, 185.4 152.61, 183.58 155.32 C181.77 158.04, 179.8 160.67, 177.72 163.19 C175.65 165.72, 173.43 168.15, 171.12 170.45 C168.8 172.76, 166.36 174.97, 163.83 177.03 C161.3 179.1, 158.65 181.06, 155.93 182.87 C153.21 184.68, 150.38 186.37, 147.49 187.91 C144.6 189.45, 141.62 190.85, 138.6 192.1 C135.57 193.35, 132.47 194.45, 129.34 195.4 C126.2 196.35, 123.01 197.14, 119.79 197.78 C116.58 198.42, 113.32 198.9, 110.06 199.22 C106.8 199.54, 103.51 199.7, 100.24 199.7 C96.96 199.7, 93.67 199.54, 90.41 199.22 C87.15 198.9, 83.9 198.42, 80.68 197.78 C77.47 197.14, 74.28 196.35, 71.14 195.4 C68.01 194.45, 64.9 193.35, 61.88 192.1 C58.85 190.85, 55.87 189.45, 52.99 187.91 C50.1 186.37, 47.27 184.68, 44.55 182.87 C41.83 181.06, 39.18 179.1, 36.65 177.03 C34.12 174.97, 31.68 172.76, 29.36 170.45 C27.04 168.15, 24.83 165.72, 22.75 163.19 C20.68 160.67, 18.71 158.04, 16.89 155.32 C15.07 152.61, 13.38 149.8, 11.84 146.92 C10.29 144.04, 8.88 141.07, 7.63 138.06 C6.38 135.05, 5.27 131.96, 4.32 128.83 C3.37 125.71, 2.56 122.53, 1.93 119.33 C1.29 116.13, 0.8 112.88, 0.48 109.64 C0.16 106.39, 0 103.11, 0 99.85 C0 96.59, 0.16 93.31, 0.48 90.06 C0.8 86.82, 1.29 83.57, 1.93 80.37 C2.56 77.17, 3.37 73.99, 4.32 70.86 C5.27 67.74, 6.38 64.65, 7.63 61.64 C8.88 58.62, 10.29 55.66, 11.84 52.78 C13.38 49.9, 15.07 47.09, 16.89 44.38 C18.71 41.66, 20.68 39.03, 22.75 36.51 C24.83 33.98, 27.04 31.55, 29.36 29.25 C31.68 26.94, 34.12 24.73, 36.65 22.66 C39.18 20.6, 41.83 18.64, 44.55 16.83 C47.27 15.02, 50.1 13.33, 52.99 11.79 C55.87 10.25, 58.85 8.85, 61.88 7.6 C64.9 6.35, 68.01 5.25, 71.14 4.3 C74.28 3.35, 77.47 2.56, 80.68 1.92 C83.9 1.28, 87.15 0.8, 90.41 0.48 C93.67 0.16, 96.96 0, 100.24 0 C103.51 0, 106.8 0.16, 110.06 0.48 C113.32 0.8, 116.58 1.28, 119.79 1.92 C123.01 2.56, 126.2 3.35, 129.34 4.3 C132.47 5.25, 135.57 6.35, 138.6 7.6 C141.62 8.85, 144.6 10.25, 147.49 11.79 C150.38 13.33, 153.21 15.02, 155.93 16.83 C158.65 18.64, 161.3 20.6, 163.83 22.66 C166.36 24.73, 168.8 26.94, 171.12 29.25 C173.43 31.55, 175.65 33.98, 177.72 36.51 C179.8 39.03, 181.77 41.66, 183.58 44.38 C185.4 47.09, 187.1 49.9, 188.64 52.78 C190.19 55.66, 191.59 58.62, 192.85 61.64 C194.1 64.65, 195.21 67.74, 196.16 70.86 C197.11 73.99, 197.91 77.17, 198.55 80.37 C199.19 83.57, 199.67 86.82, 200 90.06 C200.32 93.31, 200.4 98.22, 200.48 99.85 C200.56 101.48, 200.56 98.22, 200.48 99.85" stroke="none" stroke-width="0" fill="#e56b6f"></path><path d="M200.48 99.85 C200.48 103.11, 200.32 106.39, 200 109.64 C199.67 112.88, 199.19 116.13, 198.55 119.33 C197.91 122.53, 197.11 125.71, 196.16 128.83 C195.21 131.96, 194.1 135.05, 192.85 138.06 C191.59 141.07, 190.19 144.04, 188.64 146.92 C187.1 149.8, 185.4 152.61, 183.58 155.32 C181.77 158.04, 179.8 160.67, 177.72 163.19 C175.65 165.72, 173.43 168.15, 171.12 170.45 C168.8 172.76, 166.36 174.97, 163.83 177.03 C161.3 179.1, 158.65 181.06, 155.93 182.87 C153.21 184.68, 150.38 186.37, 147.49 187.91 C144.6 189.45, 141.62 190.85, 138.6 192.1 C135.57 193.35, 132.47 194.45, 129.34 195.4 C126.2 196.35, 123.01 197.14, 119.79 197.78 C116.58 198.42, 113.32 198.9, 110.06 199.22 C106.8 199.54, 103.51 199.7, 100.24 199.7 C96.96 199.7, 93.67 199.54, 90.41 199.22 C87.15 198.9, 83.9 198.42, 80.68 197.78 C77.47 197.14, 74.28 196.35, 71.14 195.4 C68.01 194.45, 64.9 193.35, 61.88 192.1 C58.85 190.85, 55.87 189.45, 52.99 187.91 C50.1 186.37, 47.27 184.68, 44.55 182.87 C41.83 181.06, 39.18 179.1, 36.65 177.03 C34.12 174.97, 31.68 172.76, 29.36 170.45 C27.04 168.15, 24.83 165.72, 22.75 163.19 C20.68 160.67, 18.71 158.04, 16.89 155.32 C15.07 152.61, 13.38 149.8, 11.84 146.92 C10.29 144.04, 8.88 141.07, 7.63 138.06 C6.38 135.05, 5.27 131.96, 4.32 128.83 C3.37 125.71, 2.56 122.53, 1.93 119.33 C1.29 116.13, 0.8 112.88, 0.48 109.64 C0.16 106.39, 0 103.11, 0 99.85 C0 96.59, 0.16 93.31, 0.48 90.06 C0.8 86.82, 1.29 83.57, 1.93 80.37 C2.56 77.17, 3.37 73.99, 4.32 70.86 C5.27 67.74, 6.38 64.65, 7.63 61.64 C8.88 58.62, 10.29 55.66, 11.84 52.78 C13.38 49.9, 15.07 47.09, 16.89 44.38 C18.71 41.66, 20.68 39.03, 22.75 36.51 C24.83 33.98, 27.04 31.55, 29.36 29.25 C31.68 26.94, 34.12 24.73, 36.65 22.66 C39.18 20.6, 41.83 18.64, 44.55 16.83 C47.27 15.02, 50.1 13.33, 52.99 11.79 C55.87 10.25, 58.85 8.85, 61.88 7.6 C64.9 6.35, 68.01 5.25, 71.14 4.3 C74.28 3.35, 77.47 2.56, 80.68 1.92 C83.9 1.28, 87.15 0.8, 90.41 0.48 C93.67 0.16, 96.96 0, 100.24 0 C103.51 0, 106.8 0.16, 110.06 0.48 C113.32 0.8, 116.58 1.28, 119.79 1.92 C123.01 2.56, 126.2 3.35, 129.34 4.3 C132.47 5.25, 135.57 6.35, 138.6 7.6 C141.62 8.85, 144.6 10.25, 147.49 11.79 C150.38 13.33, 153.21 15.02, 155.93 16.83 C158.65 18.64, 161.3 20.6, 163.83 22.66 C166.36 24.73, 168.8 26.94, 171.12 29.25 C173.43 31.55, 175.65 33.98, 177.72 36.51 C179.8 39.03, 181.77 41.66, 183.58 44.38 C185.4 47.09, 187.1 49.9, 188.64 52.78 C190.19 55.66, 191.59 58.62, 192.85 61.64 C194.1 64.65, 195.21 67.74, 196.16 70.86 C197.11 73.99, 197.91 77.17, 198.55 80.37 C199.19 83.57, 199.67 86.82, 200 90.06 C200.32 93.31, 200.4 98.22, 200.48 99.85 C200.56 101.48, 200.56 98.22, 200.48 99.85" stroke="#e56b6f" stroke-width="4" fill="transparent "></path></g><g stroke-linecap="round" transform="translate(12.283460621417362 13.596920597068276) rotate(0 113.84702075957148 116.35006402151983)"><path d="M227.69 116.35 C227.69 119.73, 227.55 123.12, 227.26 126.49 C226.97 129.86, 226.54 133.23, 225.96 136.55 C225.39 139.88, 224.67 143.2, 223.81 146.46 C222.96 149.73, 221.96 152.97, 220.83 156.14 C219.7 159.32, 218.43 162.46, 217.03 165.52 C215.63 168.59, 214.1 171.6, 212.44 174.53 C210.79 177.45, 209 180.32, 207.11 183.09 C205.21 185.85, 203.18 188.55, 201.06 191.14 C198.93 193.73, 196.69 196.23, 194.35 198.62 C192.01 201.01, 189.56 203.31, 187.03 205.48 C184.49 207.65, 181.86 209.72, 179.15 211.66 C176.44 213.6, 173.63 215.42, 170.77 217.11 C167.91 218.8, 164.96 220.37, 161.96 221.8 C158.96 223.23, 155.89 224.53, 152.78 225.68 C149.68 226.84, 146.51 227.86, 143.31 228.74 C140.12 229.61, 136.87 230.35, 133.62 230.93 C130.36 231.52, 127.06 231.96, 123.77 232.26 C120.47 232.55, 117.15 232.7, 113.85 232.7 C110.54 232.7, 107.22 232.55, 103.92 232.26 C100.63 231.96, 97.33 231.52, 94.08 230.93 C90.82 230.35, 87.58 229.61, 84.38 228.74 C81.19 227.86, 78.02 226.84, 74.91 225.68 C71.8 224.53, 68.73 223.23, 65.73 221.8 C62.74 220.37, 59.79 218.8, 56.92 217.11 C54.06 215.42, 51.26 213.6, 48.55 211.66 C45.84 209.72, 43.2 207.65, 40.67 205.48 C38.13 203.31, 35.68 201.01, 33.35 198.62 C31.01 196.23, 28.76 193.73, 26.64 191.14 C24.51 188.55, 22.49 185.85, 20.59 183.09 C18.69 180.32, 16.91 177.45, 15.25 174.53 C13.6 171.6, 12.06 168.59, 10.67 165.52 C9.27 162.46, 8 159.32, 6.87 156.14 C5.73 152.97, 4.74 149.73, 3.88 146.46 C3.02 143.2, 2.3 139.88, 1.73 136.55 C1.16 133.23, 0.72 129.86, 0.43 126.49 C0.14 123.12, 0 119.73, 0 116.35 C0 112.97, 0.14 109.58, 0.43 106.21 C0.72 102.84, 1.16 99.47, 1.73 96.15 C2.3 92.82, 3.02 89.5, 3.88 86.24 C4.74 82.97, 5.73 79.73, 6.87 76.56 C8 73.38, 9.27 70.24, 10.67 67.18 C12.06 64.11, 13.6 61.1, 15.25 58.18 C16.91 55.25, 18.69 52.38, 20.59 49.61 C22.49 46.85, 24.51 44.15, 26.64 41.56 C28.76 38.97, 31.01 36.47, 33.35 34.08 C35.68 31.69, 38.13 29.39, 40.67 27.22 C43.2 25.05, 45.84 22.98, 48.55 21.04 C51.26 19.1, 54.06 17.28, 56.92 15.59 C59.79 13.9, 62.74 12.33, 65.73 10.9 C68.73 9.47, 71.8 8.17, 74.91 7.02 C78.02 5.86, 81.19 4.84, 84.38 3.96 C87.58 3.09, 90.82 2.35, 94.08 1.77 C97.33 1.18, 100.63 0.74, 103.92 0.44 C107.22 0.15, 110.54 0, 113.85 0 C117.15 0, 120.47 0.15, 123.77 0.44 C127.06 0.74, 130.36 1.18, 133.62 1.77 C136.87 2.35, 140.12 3.09, 143.31 3.96 C146.51 4.84, 149.68 5.86, 152.78 7.02 C155.89 8.17, 158.96 9.47, 161.96 10.9 C164.96 12.33, 167.91 13.9, 170.77 15.59 C173.63 17.28, 176.44 19.1, 179.15 21.04 C181.86 22.98, 184.49 25.05, 187.03 27.22 C189.56 29.39, 192.01 31.69, 194.35 34.08 C196.69 36.47, 198.93 38.97, 201.06 41.56 C203.18 44.15, 205.21 46.85, 207.11 49.61 C209 52.38, 210.79 55.25, 212.44 58.18 C214.1 61.1, 215.63 64.11, 217.03 67.18 C218.43 70.24, 219.7 73.38, 220.83 76.56 C221.96 79.73, 222.96 82.97, 223.81 86.24 C224.67 89.5, 225.39 92.82, 225.96 96.15 C226.54 99.47, 226.97 102.84, 227.26 106.21 C227.55 109.58, 227.62 114.66, 227.69 116.35 C227.77 118.04, 227.77 114.66, 227.69 116.35" stroke="#365071" stroke-width="4" fill="none"></path></g><g stroke-linecap="round"><g transform="translate(17.53092471054333 163.50757108564693) rotate(0 110.36003516827168 4.34959855303741)"><path d="M0 0 C1.15 -4.3, 2.32 -21.43, 6.92 -25.77 C11.52 -30.11, 22.78 -33.03, 27.59 -26.06 C32.4 -19.1, 29.69 8.41, 35.76 16 C41.84 23.6, 58.29 26.43, 64.07 19.49 C69.85 12.55, 63.59 -18.02, 70.44 -25.64 C77.28 -33.26, 97.8 -36.21, 105.14 -26.23 C112.48 -16.26, 107.51 24.01, 114.48 34.21 C121.45 44.4, 140.9 44.28, 146.95 34.93 C153 25.59, 145.19 -12.16, 150.78 -21.86 C156.37 -31.56, 174.71 -29.24, 180.5 -23.26 C186.29 -17.29, 181.82 7.75, 185.53 13.99 C189.24 20.24, 199.32 19.57, 202.76 14.2 C206.2 8.82, 203.17 -12.81, 206.16 -18.25 C209.16 -23.7, 218.29 -18.44, 220.72 -18.48 M0 0 C1.15 -4.3, 2.32 -21.43, 6.92 -25.77 C11.52 -30.11, 22.78 -33.03, 27.59 -26.06 C32.4 -19.1, 29.69 8.41, 35.76 16 C41.84 23.6, 58.29 26.43, 64.07 19.49 C69.85 12.55, 63.59 -18.02, 70.44 -25.64 C77.28 -33.26, 97.8 -36.21, 105.14 -26.23 C112.48 -16.26, 107.51 24.01, 114.48 34.21 C121.45 44.4, 140.9 44.28, 146.95 34.93 C153 25.59, 145.19 -12.16, 150.78 -21.86 C156.37 -31.56, 174.71 -29.24, 180.5 -23.26 C186.29 -17.29, 181.82 7.75, 185.53 13.99 C189.24 20.24, 199.32 19.57, 202.76 14.2 C206.2 8.82, 203.17 -12.81, 206.16 -18.25 C209.16 -23.7, 218.29 -18.44, 220.72 -18.48" stroke="#365071" stroke-width="4" fill="none"></path></g></g><mask></mask><g stroke-linecap="round" transform="translate(52.68420972234162 56.94702116657808) rotate(0 6.473115906343537 6.072116115148674)"><path d="M12.95 6.07 C12.95 6.42, 12.91 6.78, 12.85 7.13 C12.78 7.47, 12.68 7.82, 12.56 8.15 C12.43 8.48, 12.27 8.8, 12.08 9.11 C11.89 9.41, 11.67 9.71, 11.43 9.98 C11.19 10.24, 10.92 10.5, 10.63 10.72 C10.35 10.95, 10.03 11.15, 9.71 11.33 C9.39 11.51, 9.04 11.66, 8.69 11.78 C8.33 11.9, 7.97 11.99, 7.6 12.05 C7.23 12.11, 6.85 12.14, 6.47 12.14 C6.1 12.14, 5.72 12.11, 5.35 12.05 C4.98 11.99, 4.61 11.9, 4.26 11.78 C3.91 11.66, 3.56 11.51, 3.24 11.33 C2.91 11.15, 2.6 10.95, 2.31 10.72 C2.03 10.5, 1.76 10.24, 1.51 9.98 C1.27 9.71, 1.05 9.41, 0.87 9.11 C0.68 8.8, 0.52 8.48, 0.39 8.15 C0.26 7.82, 0.16 7.47, 0.1 7.13 C0.03 6.78, 0 6.42, 0 6.07 C0 5.72, 0.03 5.36, 0.1 5.02 C0.16 4.67, 0.26 4.33, 0.39 4 C0.52 3.67, 0.68 3.34, 0.87 3.04 C1.05 2.73, 1.27 2.44, 1.51 2.17 C1.76 1.9, 2.03 1.65, 2.31 1.42 C2.6 1.19, 2.91 0.99, 3.24 0.81 C3.56 0.64, 3.91 0.49, 4.26 0.37 C4.61 0.25, 4.98 0.15, 5.35 0.09 C5.72 0.03, 6.1 0, 6.47 0 C6.85 0, 7.23 0.03, 7.6 0.09 C7.97 0.15, 8.33 0.25, 8.69 0.37 C9.04 0.49, 9.39 0.64, 9.71 0.81 C10.03 0.99, 10.35 1.19, 10.63 1.42 C10.92 1.65, 11.19 1.9, 11.43 2.17 C11.67 2.44, 11.89 2.73, 12.08 3.04 C12.27 3.34, 12.43 3.67, 12.56 4 C12.68 4.33, 12.78 4.67, 12.85 5.02 C12.91 5.36, 12.93 5.9, 12.95 6.07 C12.96 6.25, 12.96 5.9, 12.95 6.07" stroke="none" stroke-width="0" fill="#365071"></path><path d="M12.95 6.07 C12.95 6.42, 12.91 6.78, 12.85 7.13 C12.78 7.47, 12.68 7.82, 12.56 8.15 C12.43 8.48, 12.27 8.8, 12.08 9.11 C11.89 9.41, 11.67 9.71, 11.43 9.98 C11.19 10.24, 10.92 10.5, 10.63 10.72 C10.35 10.95, 10.03 11.15, 9.71 11.33 C9.39 11.51, 9.04 11.66, 8.69 11.78 C8.33 11.9, 7.97 11.99, 7.6 12.05 C7.23 12.11, 6.85 12.14, 6.47 12.14 C6.1 12.14, 5.72 12.11, 5.35 12.05 C4.98 11.99, 4.61 11.9, 4.26 11.78 C3.91 11.66, 3.56 11.51, 3.24 11.33 C2.91 11.15, 2.6 10.95, 2.31 10.72 C2.03 10.5, 1.76 10.24, 1.51 9.98 C1.27 9.71, 1.05 9.41, 0.87 9.11 C0.68 8.8, 0.52 8.48, 0.39 8.15 C0.26 7.82, 0.16 7.47, 0.1 7.13 C0.03 6.78, 0 6.42, 0 6.07 C0 5.72, 0.03 5.36, 0.1 5.02 C0.16 4.67, 0.26 4.33, 0.39 4 C0.52 3.67, 0.68 3.34, 0.87 3.04 C1.05 2.73, 1.27 2.44, 1.51 2.17 C1.76 1.9, 2.03 1.65, 2.31 1.42 C2.6 1.19, 2.91 0.99, 3.24 0.81 C3.56 0.64, 3.91 0.49, 4.26 0.37 C4.61 0.25, 4.98 0.15, 5.35 0.09 C5.72 0.03, 6.1 0, 6.47 0 C6.85 0, 7.23 0.03, 7.6 0.09 C7.97 0.15, 8.33 0.25, 8.69 0.37 C9.04 0.49, 9.39 0.64, 9.71 0.81 C10.03 0.99, 10.35 1.19, 10.63 1.42 C10.92 1.65, 11.19 1.9, 11.43 2.17 C11.67 2.44, 11.89 2.73, 12.08 3.04 C12.27 3.34, 12.43 3.67, 12.56 4 C12.68 4.33, 12.78 4.67, 12.85 5.02 C12.91 5.36, 12.93 5.9, 12.95 6.07 C12.96 6.25, 12.96 5.9, 12.95 6.07" stroke="#365071" stroke-width="4" fill="none"></path></g><g stroke-linecap="round" transform="translate(76.51258533050986 88.145476480766) rotate(0 6.473115906343537 6.072116115148674)"><path d="M12.95 6.07 C12.95 6.42, 12.91 6.78, 12.85 7.13 C12.78 7.47, 12.68 7.82, 12.56 8.15 C12.43 8.48, 12.27 8.8, 12.08 9.11 C11.89 9.41, 11.67 9.71, 11.43 9.98 C11.19 10.24, 10.92 10.5, 10.63 10.72 C10.35 10.95, 10.03 11.15, 9.71 11.33 C9.39 11.51, 9.04 11.66, 8.69 11.78 C8.33 11.9, 7.97 11.99, 7.6 12.05 C7.23 12.11, 6.85 12.14, 6.47 12.14 C6.1 12.14, 5.72 12.11, 5.35 12.05 C4.98 11.99, 4.61 11.9, 4.26 11.78 C3.91 11.66, 3.56 11.51, 3.24 11.33 C2.91 11.15, 2.6 10.95, 2.31 10.72 C2.03 10.5, 1.76 10.24, 1.51 9.98 C1.27 9.71, 1.05 9.41, 0.87 9.11 C0.68 8.8, 0.52 8.48, 0.39 8.15 C0.26 7.82, 0.16 7.47, 0.1 7.13 C0.03 6.78, 0 6.42, 0 6.07 C0 5.72, 0.03 5.36, 0.1 5.02 C0.16 4.67, 0.26 4.33, 0.39 4 C0.52 3.67, 0.68 3.34, 0.87 3.04 C1.05 2.73, 1.27 2.44, 1.51 2.17 C1.76 1.9, 2.03 1.65, 2.31 1.42 C2.6 1.19, 2.91 0.99, 3.24 0.81 C3.56 0.64, 3.91 0.49, 4.26 0.37 C4.61 0.25, 4.98 0.15, 5.35 0.09 C5.72 0.03, 6.1 0, 6.47 0 C6.85 0, 7.23 0.03, 7.6 0.09 C7.97 0.15, 8.33 0.25, 8.69 0.37 C9.04 0.49, 9.39 0.64, 9.71 0.81 C10.03 0.99, 10.35 1.19, 10.63 1.42 C10.92 1.65, 11.19 1.9, 11.43 2.17 C11.67 2.44, 11.89 2.73, 12.08 3.04 C12.27 3.34, 12.43 3.67, 12.56 4 C12.68 4.33, 12.78 4.67, 12.85 5.02 C12.91 5.36, 12.93 5.9, 12.95 6.07 C12.96 6.25, 12.96 5.9, 12.95 6.07" stroke="none" stroke-width="0" fill="#365071"></path><path d="M12.95 6.07 C12.95 6.42, 12.91 6.78, 12.85 7.13 C12.78 7.47, 12.68 7.82, 12.56 8.15 C12.43 8.48, 12.27 8.8, 12.08 9.11 C11.89 9.41, 11.67 9.71, 11.43 9.98 C11.19 10.24, 10.92 10.5, 10.63 10.72 C10.35 10.95, 10.03 11.15, 9.71 11.33 C9.39 11.51, 9.04 11.66, 8.69 11.78 C8.33 11.9, 7.97 11.99, 7.6 12.05 C7.23 12.11, 6.85 12.14, 6.47 12.14 C6.1 12.14, 5.72 12.11, 5.35 12.05 C4.98 11.99, 4.61 11.9, 4.26 11.78 C3.91 11.66, 3.56 11.51, 3.24 11.33 C2.91 11.15, 2.6 10.95, 2.31 10.72 C2.03 10.5, 1.76 10.24, 1.51 9.98 C1.27 9.71, 1.05 9.41, 0.87 9.11 C0.68 8.8, 0.52 8.48, 0.39 8.15 C0.26 7.82, 0.16 7.47, 0.1 7.13 C0.03 6.78, 0 6.42, 0 6.07 C0 5.72, 0.03 5.36, 0.1 5.02 C0.16 4.67, 0.26 4.33, 0.39 4 C0.52 3.67, 0.68 3.34, 0.87 3.04 C1.05 2.73, 1.27 2.44, 1.51 2.17 C1.76 1.9, 2.03 1.65, 2.31 1.42 C2.6 1.19, 2.91 0.99, 3.24 0.81 C3.56 0.64, 3.91 0.49, 4.26 0.37 C4.61 0.25, 4.98 0.15, 5.35 0.09 C5.72 0.03, 6.1 0, 6.47 0 C6.85 0, 7.23 0.03, 7.6 0.09 C7.97 0.15, 8.33 0.25, 8.69 0.37 C9.04 0.49, 9.39 0.64, 9.71 0.81 C10.03 0.99, 10.35 1.19, 10.63 1.42 C10.92 1.65, 11.19 1.9, 11.43 2.17 C11.67 2.44, 11.89 2.73, 12.08 3.04 C12.27 3.34, 12.43 3.67, 12.56 4 C12.68 4.33, 12.78 4.67, 12.85 5.02 C12.91 5.36, 12.93 5.9, 12.95 6.07 C12.96 6.25, 12.96 5.9, 12.95 6.07" stroke="#365071" stroke-width="4" fill="none"></path></g><g stroke-linecap="round" transform="translate(111.75255563302562 29.790730171491305) rotate(0 6.473115906343537 6.072116115148674)"><path d="M12.95 6.07 C12.95 6.42, 12.91 6.78, 12.85 7.13 C12.78 7.47, 12.68 7.82, 12.56 8.15 C12.43 8.48, 12.27 8.8, 12.08 9.11 C11.89 9.41, 11.67 9.71, 11.43 9.98 C11.19 10.24, 10.92 10.5, 10.63 10.72 C10.35 10.95, 10.03 11.15, 9.71 11.33 C9.39 11.51, 9.04 11.66, 8.69 11.78 C8.33 11.9, 7.97 11.99, 7.6 12.05 C7.23 12.11, 6.85 12.14, 6.47 12.14 C6.1 12.14, 5.72 12.11, 5.35 12.05 C4.98 11.99, 4.61 11.9, 4.26 11.78 C3.91 11.66, 3.56 11.51, 3.24 11.33 C2.91 11.15, 2.6 10.95, 2.31 10.72 C2.03 10.5, 1.76 10.24, 1.51 9.98 C1.27 9.71, 1.05 9.41, 0.87 9.11 C0.68 8.8, 0.52 8.48, 0.39 8.15 C0.26 7.82, 0.16 7.47, 0.1 7.13 C0.03 6.78, 0 6.42, 0 6.07 C0 5.72, 0.03 5.36, 0.1 5.02 C0.16 4.67, 0.26 4.33, 0.39 4 C0.52 3.67, 0.68 3.34, 0.87 3.04 C1.05 2.73, 1.27 2.44, 1.51 2.17 C1.76 1.9, 2.03 1.65, 2.31 1.42 C2.6 1.19, 2.91 0.99, 3.24 0.81 C3.56 0.64, 3.91 0.49, 4.26 0.37 C4.61 0.25, 4.98 0.15, 5.35 0.09 C5.72 0.03, 6.1 0, 6.47 0 C6.85 0, 7.23 0.03, 7.6 0.09 C7.97 0.15, 8.33 0.25, 8.69 0.37 C9.04 0.49, 9.39 0.64, 9.71 0.81 C10.03 0.99, 10.35 1.19, 10.63 1.42 C10.92 1.65, 11.19 1.9, 11.43 2.17 C11.67 2.44, 11.89 2.73, 12.08 3.04 C12.27 3.34, 12.43 3.67, 12.56 4 C12.68 4.33, 12.78 4.67, 12.85 5.02 C12.91 5.36, 12.93 5.9, 12.95 6.07 C12.96 6.25, 12.96 5.9, 12.95 6.07" stroke="none" stroke-width="0" fill="#365071"></path><path d="M12.95 6.07 C12.95 6.42, 12.91 6.78, 12.85 7.13 C12.78 7.47, 12.68 7.82, 12.56 8.15 C12.43 8.48, 12.27 8.8, 12.08 9.11 C11.89 9.41, 11.67 9.71, 11.43 9.98 C11.19 10.24, 10.92 10.5, 10.63 10.72 C10.35 10.95, 10.03 11.15, 9.71 11.33 C9.39 11.51, 9.04 11.66, 8.69 11.78 C8.33 11.9, 7.97 11.99, 7.6 12.05 C7.23 12.11, 6.85 12.14, 6.47 12.14 C6.1 12.14, 5.72 12.11, 5.35 12.05 C4.98 11.99, 4.61 11.9, 4.26 11.78 C3.91 11.66, 3.56 11.51, 3.24 11.33 C2.91 11.15, 2.6 10.95, 2.31 10.72 C2.03 10.5, 1.76 10.24, 1.51 9.98 C1.27 9.71, 1.05 9.41, 0.87 9.11 C0.68 8.8, 0.52 8.48, 0.39 8.15 C0.26 7.82, 0.16 7.47, 0.1 7.13 C0.03 6.78, 0 6.42, 0 6.07 C0 5.72, 0.03 5.36, 0.1 5.02 C0.16 4.67, 0.26 4.33, 0.39 4 C0.52 3.67, 0.68 3.34, 0.87 3.04 C1.05 2.73, 1.27 2.44, 1.51 2.17 C1.76 1.9, 2.03 1.65, 2.31 1.42 C2.6 1.19, 2.91 0.99, 3.24 0.81 C3.56 0.64, 3.91 0.49, 4.26 0.37 C4.61 0.25, 4.98 0.15, 5.35 0.09 C5.72 0.03, 6.1 0, 6.47 0 C6.85 0, 7.23 0.03, 7.6 0.09 C7.97 0.15, 8.33 0.25, 8.69 0.37 C9.04 0.49, 9.39 0.64, 9.71 0.81 C10.03 0.99, 10.35 1.19, 10.63 1.42 C10.92 1.65, 11.19 1.9, 11.43 2.17 C11.67 2.44, 11.89 2.73, 12.08 3.04 C12.27 3.34, 12.43 3.67, 12.56 4 C12.68 4.33, 12.78 4.67, 12.85 5.02 C12.91 5.36, 12.93 5.9, 12.95 6.07 C12.96 6.25, 12.96 5.9, 12.95 6.07" stroke="#365071" stroke-width="4" fill="none"></path></g><g stroke-linecap="round" transform="translate(150.03256388083082 111.32330342239953) rotate(0 6.473115906343537 6.072116115148674)"><path d="M12.95 6.07 C12.95 6.42, 12.91 6.78, 12.85 7.13 C12.78 7.47, 12.68 7.82, 12.56 8.15 C12.43 8.48, 12.27 8.8, 12.08 9.11 C11.89 9.41, 11.67 9.71, 11.43 9.98 C11.19 10.24, 10.92 10.5, 10.63 10.72 C10.35 10.95, 10.03 11.15, 9.71 11.33 C9.39 11.51, 9.04 11.66, 8.69 11.78 C8.33 11.9, 7.97 11.99, 7.6 12.05 C7.23 12.11, 6.85 12.14, 6.47 12.14 C6.1 12.14, 5.72 12.11, 5.35 12.05 C4.98 11.99, 4.61 11.9, 4.26 11.78 C3.91 11.66, 3.56 11.51, 3.24 11.33 C2.91 11.15, 2.6 10.95, 2.31 10.72 C2.03 10.5, 1.76 10.24, 1.51 9.98 C1.27 9.71, 1.05 9.41, 0.87 9.11 C0.68 8.8, 0.52 8.48, 0.39 8.15 C0.26 7.82, 0.16 7.47, 0.1 7.13 C0.03 6.78, 0 6.42, 0 6.07 C0 5.72, 0.03 5.36, 0.1 5.02 C0.16 4.67, 0.26 4.33, 0.39 4 C0.52 3.67, 0.68 3.34, 0.87 3.04 C1.05 2.73, 1.27 2.44, 1.51 2.17 C1.76 1.9, 2.03 1.65, 2.31 1.42 C2.6 1.19, 2.91 0.99, 3.24 0.81 C3.56 0.64, 3.91 0.49, 4.26 0.37 C4.61 0.25, 4.98 0.15, 5.35 0.09 C5.72 0.03, 6.1 0, 6.47 0 C6.85 0, 7.23 0.03, 7.6 0.09 C7.97 0.15, 8.33 0.25, 8.69 0.37 C9.04 0.49, 9.39 0.64, 9.71 0.81 C10.03 0.99, 10.35 1.19, 10.63 1.42 C10.92 1.65, 11.19 1.9, 11.43 2.17 C11.67 2.44, 11.89 2.73, 12.08 3.04 C12.27 3.34, 12.43 3.67, 12.56 4 C12.68 4.33, 12.78 4.67, 12.85 5.02 C12.91 5.36, 12.93 5.9, 12.95 6.07 C12.96 6.25, 12.96 5.9, 12.95 6.07" stroke="none" stroke-width="0" fill="#365071"></path><path d="M12.95 6.07 C12.95 6.42, 12.91 6.78, 12.85 7.13 C12.78 7.47, 12.68 7.82, 12.56 8.15 C12.43 8.48, 12.27 8.8, 12.08 9.11 C11.89 9.41, 11.67 9.71, 11.43 9.98 C11.19 10.24, 10.92 10.5, 10.63 10.72 C10.35 10.95, 10.03 11.15, 9.71 11.33 C9.39 11.51, 9.04 11.66, 8.69 11.78 C8.33 11.9, 7.97 11.99, 7.6 12.05 C7.23 12.11, 6.85 12.14, 6.47 12.14 C6.1 12.14, 5.72 12.11, 5.35 12.05 C4.98 11.99, 4.61 11.9, 4.26 11.78 C3.91 11.66, 3.56 11.51, 3.24 11.33 C2.91 11.15, 2.6 10.95, 2.31 10.72 C2.03 10.5, 1.76 10.24, 1.51 9.98 C1.27 9.71, 1.05 9.41, 0.87 9.11 C0.68 8.8, 0.52 8.48, 0.39 8.15 C0.26 7.82, 0.16 7.47, 0.1 7.13 C0.03 6.78, 0 6.42, 0 6.07 C0 5.72, 0.03 5.36, 0.1 5.02 C0.16 4.67, 0.26 4.33, 0.39 4 C0.52 3.67, 0.68 3.34, 0.87 3.04 C1.05 2.73, 1.27 2.44, 1.51 2.17 C1.76 1.9, 2.03 1.65, 2.31 1.42 C2.6 1.19, 2.91 0.99, 3.24 0.81 C3.56 0.64, 3.91 0.49, 4.26 0.37 C4.61 0.25, 4.98 0.15, 5.35 0.09 C5.72 0.03, 6.1 0, 6.47 0 C6.85 0, 7.23 0.03, 7.6 0.09 C7.97 0.15, 8.33 0.25, 8.69 0.37 C9.04 0.49, 9.39 0.64, 9.71 0.81 C10.03 0.99, 10.35 1.19, 10.63 1.42 C10.92 1.65, 11.19 1.9, 11.43 2.17 C11.67 2.44, 11.89 2.73, 12.08 3.04 C12.27 3.34, 12.43 3.67, 12.56 4 C12.68 4.33, 12.78 4.67, 12.85 5.02 C12.91 5.36, 12.93 5.9, 12.95 6.07 C12.96 6.25, 12.96 5.9, 12.95 6.07" stroke="#365071" stroke-width="4" fill="none"></path></g><g stroke-linecap="round" transform="translate(175.09897672423176 76.06974737660235) rotate(0 6.473115906343537 6.072116115148674)"><path d="M12.95 6.07 C12.95 6.42, 12.91 6.78, 12.85 7.13 C12.78 7.47, 12.68 7.82, 12.56 8.15 C12.43 8.48, 12.27 8.8, 12.08 9.11 C11.89 9.41, 11.67 9.71, 11.43 9.98 C11.19 10.24, 10.92 10.5, 10.63 10.72 C10.35 10.95, 10.03 11.15, 9.71 11.33 C9.39 11.51, 9.04 11.66, 8.69 11.78 C8.33 11.9, 7.97 11.99, 7.6 12.05 C7.23 12.11, 6.85 12.14, 6.47 12.14 C6.1 12.14, 5.72 12.11, 5.35 12.05 C4.98 11.99, 4.61 11.9, 4.26 11.78 C3.91 11.66, 3.56 11.51, 3.24 11.33 C2.91 11.15, 2.6 10.95, 2.31 10.72 C2.03 10.5, 1.76 10.24, 1.51 9.98 C1.27 9.71, 1.05 9.41, 0.87 9.11 C0.68 8.8, 0.52 8.48, 0.39 8.15 C0.26 7.82, 0.16 7.47, 0.1 7.13 C0.03 6.78, 0 6.42, 0 6.07 C0 5.72, 0.03 5.36, 0.1 5.02 C0.16 4.67, 0.26 4.33, 0.39 4 C0.52 3.67, 0.68 3.34, 0.87 3.04 C1.05 2.73, 1.27 2.44, 1.51 2.17 C1.76 1.9, 2.03 1.65, 2.31 1.42 C2.6 1.19, 2.91 0.99, 3.24 0.81 C3.56 0.64, 3.91 0.49, 4.26 0.37 C4.61 0.25, 4.98 0.15, 5.35 0.09 C5.72 0.03, 6.1 0, 6.47 0 C6.85 0, 7.23 0.03, 7.6 0.09 C7.97 0.15, 8.33 0.25, 8.69 0.37 C9.04 0.49, 9.39 0.64, 9.71 0.81 C10.03 0.99, 10.35 1.19, 10.63 1.42 C10.92 1.65, 11.19 1.9, 11.43 2.17 C11.67 2.44, 11.89 2.73, 12.08 3.04 C12.27 3.34, 12.43 3.67, 12.56 4 C12.68 4.33, 12.78 4.67, 12.85 5.02 C12.91 5.36, 12.93 5.9, 12.95 6.07 C12.96 6.25, 12.96 5.9, 12.95 6.07" stroke="none" stroke-width="0" fill="#365071"></path><path d="M12.95 6.07 C12.95 6.42, 12.91 6.78, 12.85 7.13 C12.78 7.47, 12.68 7.82, 12.56 8.15 C12.43 8.48, 12.27 8.8, 12.08 9.11 C11.89 9.41, 11.67 9.71, 11.43 9.98 C11.19 10.24, 10.92 10.5, 10.63 10.72 C10.35 10.95, 10.03 11.15, 9.71 11.33 C9.39 11.51, 9.04 11.66, 8.69 11.78 C8.33 11.9, 7.97 11.99, 7.6 12.05 C7.23 12.11, 6.85 12.14, 6.47 12.14 C6.1 12.14, 5.72 12.11, 5.35 12.05 C4.98 11.99, 4.61 11.9, 4.26 11.78 C3.91 11.66, 3.56 11.51, 3.24 11.33 C2.91 11.15, 2.6 10.95, 2.31 10.72 C2.03 10.5, 1.76 10.24, 1.51 9.98 C1.27 9.71, 1.05 9.41, 0.87 9.11 C0.68 8.8, 0.52 8.48, 0.39 8.15 C0.26 7.82, 0.16 7.47, 0.1 7.13 C0.03 6.78, 0 6.42, 0 6.07 C0 5.72, 0.03 5.36, 0.1 5.02 C0.16 4.67, 0.26 4.33, 0.39 4 C0.52 3.67, 0.68 3.34, 0.87 3.04 C1.05 2.73, 1.27 2.44, 1.51 2.17 C1.76 1.9, 2.03 1.65, 2.31 1.42 C2.6 1.19, 2.91 0.99, 3.24 0.81 C3.56 0.64, 3.91 0.49, 4.26 0.37 C4.61 0.25, 4.98 0.15, 5.35 0.09 C5.72 0.03, 6.1 0, 6.47 0 C6.85 0, 7.23 0.03, 7.6 0.09 C7.97 0.15, 8.33 0.25, 8.69 0.37 C9.04 0.49, 9.39 0.64, 9.71 0.81 C10.03 0.99, 10.35 1.19, 10.63 1.42 C10.92 1.65, 11.19 1.9, 11.43 2.17 C11.67 2.44, 11.89 2.73, 12.08 3.04 C12.27 3.34, 12.43 3.67, 12.56 4 C12.68 4.33, 12.78 4.67, 12.85 5.02 C12.91 5.36, 12.93 5.9, 12.95 6.07 C12.96 6.25, 12.96 5.9, 12.95 6.07" stroke="#365071" stroke-width="4" fill="none"></path></g><g stroke-linecap="round" transform="translate(121.62885710166665 69.81141616666827) rotate(0 6.473115906343537 6.072116115148674)"><path d="M12.95 6.07 C12.95 6.42, 12.91 6.78, 12.85 7.13 C12.78 7.47, 12.68 7.82, 12.56 8.15 C12.43 8.48, 12.27 8.8, 12.08 9.11 C11.89 9.41, 11.67 9.71, 11.43 9.98 C11.19 10.24, 10.92 10.5, 10.63 10.72 C10.35 10.95, 10.03 11.15, 9.71 11.33 C9.39 11.51, 9.04 11.66, 8.69 11.78 C8.33 11.9, 7.97 11.99, 7.6 12.05 C7.23 12.11, 6.85 12.14, 6.47 12.14 C6.1 12.14, 5.72 12.11, 5.35 12.05 C4.98 11.99, 4.61 11.9, 4.26 11.78 C3.91 11.66, 3.56 11.51, 3.24 11.33 C2.91 11.15, 2.6 10.95, 2.31 10.72 C2.03 10.5, 1.76 10.24, 1.51 9.98 C1.27 9.71, 1.05 9.41, 0.87 9.11 C0.68 8.8, 0.52 8.48, 0.39 8.15 C0.26 7.82, 0.16 7.47, 0.1 7.13 C0.03 6.78, 0 6.42, 0 6.07 C0 5.72, 0.03 5.36, 0.1 5.02 C0.16 4.67, 0.26 4.33, 0.39 4 C0.52 3.67, 0.68 3.34, 0.87 3.04 C1.05 2.73, 1.27 2.44, 1.51 2.17 C1.76 1.9, 2.03 1.65, 2.31 1.42 C2.6 1.19, 2.91 0.99, 3.24 0.81 C3.56 0.64, 3.91 0.49, 4.26 0.37 C4.61 0.25, 4.98 0.15, 5.35 0.09 C5.72 0.03, 6.1 0, 6.47 0 C6.85 0, 7.23 0.03, 7.6 0.09 C7.97 0.15, 8.33 0.25, 8.69 0.37 C9.04 0.49, 9.39 0.64, 9.71 0.81 C10.03 0.99, 10.35 1.19, 10.63 1.42 C10.92 1.65, 11.19 1.9, 11.43 2.17 C11.67 2.44, 11.89 2.73, 12.08 3.04 C12.27 3.34, 12.43 3.67, 12.56 4 C12.68 4.33, 12.78 4.67, 12.85 5.02 C12.91 5.36, 12.93 5.9, 12.95 6.07 C12.96 6.25, 12.96 5.9, 12.95 6.07" stroke="none" stroke-width="0" fill="#365071"></path><path d="M12.95 6.07 C12.95 6.42, 12.91 6.78, 12.85 7.13 C12.78 7.47, 12.68 7.82, 12.56 8.15 C12.43 8.48, 12.27 8.8, 12.08 9.11 C11.89 9.41, 11.67 9.71, 11.43 9.98 C11.19 10.24, 10.92 10.5, 10.63 10.72 C10.35 10.95, 10.03 11.15, 9.71 11.33 C9.39 11.51, 9.04 11.66, 8.69 11.78 C8.33 11.9, 7.97 11.99, 7.6 12.05 C7.23 12.11, 6.85 12.14, 6.47 12.14 C6.1 12.14, 5.72 12.11, 5.35 12.05 C4.98 11.99, 4.61 11.9, 4.26 11.78 C3.91 11.66, 3.56 11.51, 3.24 11.33 C2.91 11.15, 2.6 10.95, 2.31 10.72 C2.03 10.5, 1.76 10.24, 1.51 9.98 C1.27 9.71, 1.05 9.41, 0.87 9.11 C0.68 8.8, 0.52 8.48, 0.39 8.15 C0.26 7.82, 0.16 7.47, 0.1 7.13 C0.03 6.78, 0 6.42, 0 6.07 C0 5.72, 0.03 5.36, 0.1 5.02 C0.16 4.67, 0.26 4.33, 0.39 4 C0.52 3.67, 0.68 3.34, 0.87 3.04 C1.05 2.73, 1.27 2.44, 1.51 2.17 C1.76 1.9, 2.03 1.65, 2.31 1.42 C2.6 1.19, 2.91 0.99, 3.24 0.81 C3.56 0.64, 3.91 0.49, 4.26 0.37 C4.61 0.25, 4.98 0.15, 5.35 0.09 C5.72 0.03, 6.1 0, 6.47 0 C6.85 0, 7.23 0.03, 7.6 0.09 C7.97 0.15, 8.33 0.25, 8.69 0.37 C9.04 0.49, 9.39 0.64, 9.71 0.81 C10.03 0.99, 10.35 1.19, 10.63 1.42 C10.92 1.65, 11.19 1.9, 11.43 2.17 C11.67 2.44, 11.89 2.73, 12.08 3.04 C12.27 3.34, 12.43 3.67, 12.56 4 C12.68 4.33, 12.78 4.67, 12.85 5.02 C12.91 5.36, 12.93 5.9, 12.95 6.07 C12.96 6.25, 12.96 5.9, 12.95 6.07" stroke="#365071" stroke-width="4" fill="none"></path></g><g stroke-linecap="round" transform="translate(171.7625566961151 39.379972732569115) rotate(0 6.473115906343537 6.072116115148674)"><path d="M12.95 6.07 C12.95 6.42, 12.91 6.78, 12.85 7.13 C12.78 7.47, 12.68 7.82, 12.56 8.15 C12.43 8.48, 12.27 8.8, 12.08 9.11 C11.89 9.41, 11.67 9.71, 11.43 9.98 C11.19 10.24, 10.92 10.5, 10.63 10.72 C10.35 10.95, 10.03 11.15, 9.71 11.33 C9.39 11.51, 9.04 11.66, 8.69 11.78 C8.33 11.9, 7.97 11.99, 7.6 12.05 C7.23 12.11, 6.85 12.14, 6.47 12.14 C6.1 12.14, 5.72 12.11, 5.35 12.05 C4.98 11.99, 4.61 11.9, 4.26 11.78 C3.91 11.66, 3.56 11.51, 3.24 11.33 C2.91 11.15, 2.6 10.95, 2.31 10.72 C2.03 10.5, 1.76 10.24, 1.51 9.98 C1.27 9.71, 1.05 9.41, 0.87 9.11 C0.68 8.8, 0.52 8.48, 0.39 8.15 C0.26 7.82, 0.16 7.47, 0.1 7.13 C0.03 6.78, 0 6.42, 0 6.07 C0 5.72, 0.03 5.36, 0.1 5.02 C0.16 4.67, 0.26 4.33, 0.39 4 C0.52 3.67, 0.68 3.34, 0.87 3.04 C1.05 2.73, 1.27 2.44, 1.51 2.17 C1.76 1.9, 2.03 1.65, 2.31 1.42 C2.6 1.19, 2.91 0.99, 3.24 0.81 C3.56 0.64, 3.91 0.49, 4.26 0.37 C4.61 0.25, 4.98 0.15, 5.35 0.09 C5.72 0.03, 6.1 0, 6.47 0 C6.85 0, 7.23 0.03, 7.6 0.09 C7.97 0.15, 8.33 0.25, 8.69 0.37 C9.04 0.49, 9.39 0.64, 9.71 0.81 C10.03 0.99, 10.35 1.19, 10.63 1.42 C10.92 1.65, 11.19 1.9, 11.43 2.17 C11.67 2.44, 11.89 2.73, 12.08 3.04 C12.27 3.34, 12.43 3.67, 12.56 4 C12.68 4.33, 12.78 4.67, 12.85 5.02 C12.91 5.36, 12.93 5.9, 12.95 6.07 C12.96 6.25, 12.96 5.9, 12.95 6.07" stroke="none" stroke-width="0" fill="#365071"></path><path d="M12.95 6.07 C12.95 6.42, 12.91 6.78, 12.85 7.13 C12.78 7.47, 12.68 7.82, 12.56 8.15 C12.43 8.48, 12.27 8.8, 12.08 9.11 C11.89 9.41, 11.67 9.71, 11.43 9.98 C11.19 10.24, 10.92 10.5, 10.63 10.72 C10.35 10.95, 10.03 11.15, 9.71 11.33 C9.39 11.51, 9.04 11.66, 8.69 11.78 C8.33 11.9, 7.97 11.99, 7.6 12.05 C7.23 12.11, 6.85 12.14, 6.47 12.14 C6.1 12.14, 5.72 12.11, 5.35 12.05 C4.98 11.99, 4.61 11.9, 4.26 11.78 C3.91 11.66, 3.56 11.51, 3.24 11.33 C2.91 11.15, 2.6 10.95, 2.31 10.72 C2.03 10.5, 1.76 10.24, 1.51 9.98 C1.27 9.71, 1.05 9.41, 0.87 9.11 C0.68 8.8, 0.52 8.48, 0.39 8.15 C0.26 7.82, 0.16 7.47, 0.1 7.13 C0.03 6.78, 0 6.42, 0 6.07 C0 5.72, 0.03 5.36, 0.1 5.02 C0.16 4.67, 0.26 4.33, 0.39 4 C0.52 3.67, 0.68 3.34, 0.87 3.04 C1.05 2.73, 1.27 2.44, 1.51 2.17 C1.76 1.9, 2.03 1.65, 2.31 1.42 C2.6 1.19, 2.91 0.99, 3.24 0.81 C3.56 0.64, 3.91 0.49, 4.26 0.37 C4.61 0.25, 4.98 0.15, 5.35 0.09 C5.72 0.03, 6.1 0, 6.47 0 C6.85 0, 7.23 0.03, 7.6 0.09 C7.97 0.15, 8.33 0.25, 8.69 0.37 C9.04 0.49, 9.39 0.64, 9.71 0.81 C10.03 0.99, 10.35 1.19, 10.63 1.42 C10.92 1.65, 11.19 1.9, 11.43 2.17 C11.67 2.44, 11.89 2.73, 12.08 3.04 C12.27 3.34, 12.43 3.67, 12.56 4 C12.68 4.33, 12.78 4.67, 12.85 5.02 C12.91 5.36, 12.93 5.9, 12.95 6.07 C12.96 6.25, 12.96 5.9, 12.95 6.07" stroke="#365071" stroke-width="4" fill="none"></path></g><g stroke-linecap="round" transform="translate(213.6438172713315 101.93464646970662) rotate(0 6.473115906343537 6.072116115148674)"><path d="M12.95 6.07 C12.95 6.42, 12.91 6.78, 12.85 7.13 C12.78 7.47, 12.68 7.82, 12.56 8.15 C12.43 8.48, 12.27 8.8, 12.08 9.11 C11.89 9.41, 11.67 9.71, 11.43 9.98 C11.19 10.24, 10.92 10.5, 10.63 10.72 C10.35 10.95, 10.03 11.15, 9.71 11.33 C9.39 11.51, 9.04 11.66, 8.69 11.78 C8.33 11.9, 7.97 11.99, 7.6 12.05 C7.23 12.11, 6.85 12.14, 6.47 12.14 C6.1 12.14, 5.72 12.11, 5.35 12.05 C4.98 11.99, 4.61 11.9, 4.26 11.78 C3.91 11.66, 3.56 11.51, 3.24 11.33 C2.91 11.15, 2.6 10.95, 2.31 10.72 C2.03 10.5, 1.76 10.24, 1.51 9.98 C1.27 9.71, 1.05 9.41, 0.87 9.11 C0.68 8.8, 0.52 8.48, 0.39 8.15 C0.26 7.82, 0.16 7.47, 0.1 7.13 C0.03 6.78, 0 6.42, 0 6.07 C0 5.72, 0.03 5.36, 0.1 5.02 C0.16 4.67, 0.26 4.33, 0.39 4 C0.52 3.67, 0.68 3.34, 0.87 3.04 C1.05 2.73, 1.27 2.44, 1.51 2.17 C1.76 1.9, 2.03 1.65, 2.31 1.42 C2.6 1.19, 2.91 0.99, 3.24 0.81 C3.56 0.64, 3.91 0.49, 4.26 0.37 C4.61 0.25, 4.98 0.15, 5.35 0.09 C5.72 0.03, 6.1 0, 6.47 0 C6.85 0, 7.23 0.03, 7.6 0.09 C7.97 0.15, 8.33 0.25, 8.69 0.37 C9.04 0.49, 9.39 0.64, 9.71 0.81 C10.03 0.99, 10.35 1.19, 10.63 1.42 C10.92 1.65, 11.19 1.9, 11.43 2.17 C11.67 2.44, 11.89 2.73, 12.08 3.04 C12.27 3.34, 12.43 3.67, 12.56 4 C12.68 4.33, 12.78 4.67, 12.85 5.02 C12.91 5.36, 12.93 5.9, 12.95 6.07 C12.96 6.25, 12.96 5.9, 12.95 6.07" stroke="none" stroke-width="0" fill="#365071"></path><path d="M12.95 6.07 C12.95 6.42, 12.91 6.78, 12.85 7.13 C12.78 7.47, 12.68 7.82, 12.56 8.15 C12.43 8.48, 12.27 8.8, 12.08 9.11 C11.89 9.41, 11.67 9.71, 11.43 9.98 C11.19 10.24, 10.92 10.5, 10.63 10.72 C10.35 10.95, 10.03 11.15, 9.71 11.33 C9.39 11.51, 9.04 11.66, 8.69 11.78 C8.33 11.9, 7.97 11.99, 7.6 12.05 C7.23 12.11, 6.85 12.14, 6.47 12.14 C6.1 12.14, 5.72 12.11, 5.35 12.05 C4.98 11.99, 4.61 11.9, 4.26 11.78 C3.91 11.66, 3.56 11.51, 3.24 11.33 C2.91 11.15, 2.6 10.95, 2.31 10.72 C2.03 10.5, 1.76 10.24, 1.51 9.98 C1.27 9.71, 1.05 9.41, 0.87 9.11 C0.68 8.8, 0.52 8.48, 0.39 8.15 C0.26 7.82, 0.16 7.47, 0.1 7.13 C0.03 6.78, 0 6.42, 0 6.07 C0 5.72, 0.03 5.36, 0.1 5.02 C0.16 4.67, 0.26 4.33, 0.39 4 C0.52 3.67, 0.68 3.34, 0.87 3.04 C1.05 2.73, 1.27 2.44, 1.51 2.17 C1.76 1.9, 2.03 1.65, 2.31 1.42 C2.6 1.19, 2.91 0.99, 3.24 0.81 C3.56 0.64, 3.91 0.49, 4.26 0.37 C4.61 0.25, 4.98 0.15, 5.35 0.09 C5.72 0.03, 6.1 0, 6.47 0 C6.85 0, 7.23 0.03, 7.6 0.09 C7.97 0.15, 8.33 0.25, 8.69 0.37 C9.04 0.49, 9.39 0.64, 9.71 0.81 C10.03 0.99, 10.35 1.19, 10.63 1.42 C10.92 1.65, 11.19 1.9, 11.43 2.17 C11.67 2.44, 11.89 2.73, 12.08 3.04 C12.27 3.34, 12.43 3.67, 12.56 4 C12.68 4.33, 12.78 4.67, 12.85 5.02 C12.91 5.36, 12.93 5.9, 12.95 6.07 C12.96 6.25, 12.96 5.9, 12.95 6.07" stroke="#365071" stroke-width="4" fill="none"></path></g><g stroke-linecap="round"><g transform="translate(17.538616859574176 159.90382876219815) rotate(0 110.36003516827168 4.349598553037403)"><path d="M0 0 C1.15 -4.3, 2.32 -21.43, 6.92 -25.77 C11.52 -30.11, 22.78 -33.03, 27.59 -26.06 C32.4 -19.1, 29.69 8.41, 35.76 16 C41.84 23.6, 58.29 26.43, 64.07 19.49 C69.85 12.55, 63.59 -18.02, 70.44 -25.64 C77.28 -33.26, 97.8 -36.21, 105.14 -26.23 C112.48 -16.26, 107.51 24.01, 114.48 34.21 C121.45 44.4, 140.9 44.28, 146.95 34.93 C153 25.59, 145.19 -12.16, 150.78 -21.86 C156.37 -31.56, 174.71 -29.24, 180.5 -23.26 C186.29 -17.29, 181.82 7.75, 185.53 13.99 C189.24 20.24, 199.32 19.57, 202.76 14.2 C206.2 8.82, 203.17 -12.81, 206.16 -18.25 C209.16 -23.7, 218.29 -18.44, 220.72 -18.48 M0 0 C1.15 -4.3, 2.32 -21.43, 6.92 -25.77 C11.52 -30.11, 22.78 -33.03, 27.59 -26.06 C32.4 -19.1, 29.69 8.41, 35.76 16 C41.84 23.6, 58.29 26.43, 64.07 19.49 C69.85 12.55, 63.59 -18.02, 70.44 -25.64 C77.28 -33.26, 97.8 -36.21, 105.14 -26.23 C112.48 -16.26, 107.51 24.01, 114.48 34.21 C121.45 44.4, 140.9 44.28, 146.95 34.93 C153 25.59, 145.19 -12.16, 150.78 -21.86 C156.37 -31.56, 174.71 -29.24, 180.5 -23.26 C186.29 -17.29, 181.82 7.75, 185.53 13.99 C189.24 20.24, 199.32 19.57, 202.76 14.2 C206.2 8.82, 203.17 -12.81, 206.16 -18.25 C209.16 -23.7, 218.29 -18.44, 220.72 -18.48" stroke="#365071" stroke-width="4" fill="none"></path></g></g><mask></mask><g stroke-linecap="round" transform="translate(10 10) rotate(0 116.34075464062289 118.02217529973149)"><path d="M232.68 118.02 C232.68 121.45, 232.53 124.89, 232.24 128.31 C231.94 131.72, 231.5 135.14, 230.91 138.52 C230.33 141.89, 229.59 145.26, 228.72 148.57 C227.84 151.88, 226.82 155.17, 225.67 158.39 C224.51 161.61, 223.21 164.79, 221.78 167.9 C220.35 171.01, 218.78 174.06, 217.09 177.03 C215.4 180, 213.58 182.91, 211.64 185.72 C209.7 188.53, 207.64 191.26, 205.46 193.89 C203.29 196.51, 201 199.05, 198.61 201.48 C196.22 203.9, 193.71 206.23, 191.12 208.43 C188.53 210.64, 185.84 212.73, 183.07 214.7 C180.3 216.67, 177.44 218.52, 174.51 220.23 C171.58 221.95, 168.57 223.54, 165.51 224.99 C162.45 226.44, 159.31 227.75, 156.13 228.93 C152.96 230.1, 149.72 231.14, 146.45 232.02 C143.19 232.91, 139.87 233.66, 136.54 234.25 C133.21 234.85, 129.85 235.3, 126.48 235.6 C123.11 235.89, 119.72 236.04, 116.34 236.04 C112.96 236.04, 109.57 235.89, 106.2 235.6 C102.83 235.3, 99.47 234.85, 96.14 234.25 C92.81 233.66, 89.49 232.91, 86.23 232.02 C82.96 231.14, 79.73 230.1, 76.55 228.93 C73.37 227.75, 70.24 226.44, 67.17 224.99 C64.11 223.54, 61.1 221.95, 58.17 220.23 C55.24 218.52, 52.38 216.67, 49.61 214.7 C46.84 212.73, 44.15 210.64, 41.56 208.43 C38.97 206.23, 36.47 203.9, 34.08 201.48 C31.69 199.05, 29.39 196.51, 27.22 193.89 C25.05 191.26, 22.98 188.53, 21.04 185.72 C19.1 182.91, 17.28 180, 15.59 177.03 C13.9 174.06, 12.33 171.01, 10.9 167.9 C9.47 164.79, 8.17 161.61, 7.02 158.39 C5.86 155.17, 4.84 151.88, 3.96 148.57 C3.09 145.26, 2.35 141.89, 1.77 138.52 C1.18 135.14, 0.74 131.72, 0.44 128.31 C0.15 124.89, 0 121.45, 0 118.02 C0 114.59, 0.15 111.15, 0.44 107.74 C0.74 104.32, 1.18 100.9, 1.77 97.53 C2.35 94.15, 3.09 90.79, 3.96 87.48 C4.84 84.16, 5.86 80.88, 7.02 77.66 C8.17 74.43, 9.47 71.25, 10.9 68.14 C12.33 65.04, 13.9 61.98, 15.59 59.01 C17.28 56.04, 19.1 53.14, 21.04 50.33 C22.98 47.52, 25.05 44.79, 27.22 42.16 C29.39 39.53, 31.69 36.99, 34.08 34.57 C36.47 32.14, 38.97 29.82, 41.56 27.61 C44.15 25.41, 46.84 23.31, 49.61 21.34 C52.38 19.38, 55.24 17.53, 58.17 15.81 C61.1 14.1, 64.11 12.51, 67.17 11.06 C70.24 9.61, 73.37 8.29, 76.55 7.12 C79.73 5.94, 82.96 4.91, 86.23 4.02 C89.49 3.13, 92.81 2.39, 96.14 1.79 C99.47 1.2, 102.83 0.75, 106.2 0.45 C109.57 0.15, 112.96 0, 116.34 0 C119.72 0, 123.11 0.15, 126.48 0.45 C129.85 0.75, 133.21 1.2, 136.54 1.79 C139.87 2.39, 143.19 3.13, 146.45 4.02 C149.72 4.91, 152.96 5.94, 156.13 7.12 C159.31 8.29, 162.45 9.61, 165.51 11.06 C168.57 12.51, 171.58 14.1, 174.51 15.81 C177.44 17.53, 180.3 19.38, 183.07 21.34 C185.84 23.31, 188.53 25.41, 191.12 27.61 C193.71 29.82, 196.22 32.14, 198.61 34.57 C201 36.99, 203.29 39.53, 205.46 42.16 C207.64 44.79, 209.7 47.52, 211.64 50.33 C213.58 53.14, 215.4 56.04, 217.09 59.01 C218.78 61.98, 220.35 65.04, 221.78 68.14 C223.21 71.25, 224.51 74.43, 225.67 77.66 C226.82 80.88, 227.84 84.16, 228.72 87.48 C229.59 90.79, 230.33 94.15, 230.91 97.53 C231.5 100.9, 231.94 104.32, 232.24 107.74 C232.53 111.15, 232.61 116.31, 232.68 118.02 C232.76 119.74, 232.76 116.31, 232.68 118.02" stroke="#365071" stroke-width="4" fill="none"></path></g></svg>