<?xml version="1.0" encoding="UTF-8" standalone="no"?>
<!-- Created with Inkscape (http://www.inkscape.org/) -->

<svg
   width="2562.7214"
   height="1442.4978"
   viewBox="0 0 2562.7214 1442.4978"
   version="1.1"
   id="svg1"
   xml:space="preserve"
   xmlns:xlink="http://www.w3.org/1999/xlink"
   xmlns="http://www.w3.org/2000/svg"
   xmlns:svg="http://www.w3.org/2000/svg"><defs
     id="defs1"><linearGradient
       id="linearGradient268"><stop
         style="stop-color:#e56b67;stop-opacity:0.64846414;"
         offset="0.26536497"
         id="stop268" /><stop
         style="stop-color:#365071;stop-opacity:0.64999998;"
         offset="0.6932826"
         id="stop270" /><stop
         style="stop-color:#e5e5e5;stop-opacity:0;"
         offset="1"
         id="stop269" /></linearGradient><linearGradient
       gradientUnits="userSpaceOnUse"
       y2="1144"
       y1="547"
       x2="0"
       x1="0"
       id="ldbk-photon-6vdff58d2hl-lg"><stop
         offset="0"
         stop-color="#365071"
         id="stop1" /><stop
         offset="1"
         stop-color="#e56b6f"
         id="stop2" /></linearGradient><mask
       id="ldbk-photon-6vdff58d2hl-mask"><g
         id="g131"><path
           fill="#fff"
           d="M -0.5,1444 V 559.58094 a 16,16 0 0 0 32,0 V 1444"
           style="fill:#ffffff"
           id="path2" /><path
           fill="#000"
           d="m -0.5,1205.6486 v 30.6487 a 16,16 0 0 0 32,0 v -30.6487 a 16,16 0 0 0 -32,0"
           opacity="1"
           style="fill:#000000"
           id="path3" /><path
           fill="#fff"
           d="M 30.5,1444 V 514.74907 a 16,16 0 0 1 32,0 V 1444"
           transform="translate(0,-6.5009046)"
           style="fill:#ffffff"
           id="path4" /><path
           fill="#fff"
           d="m 30.5,545.74907 v 37.36759 a 16,16 0 0 0 32,0 v -37.36759 a 16,16 0 0 0 -32,0"
           opacity="1"
           style="fill:#ffffff"
           id="path5" /><path
           fill="#fff"
           d="M 61.5,1444 V 556.5397 a 16,16 0 0 0 32,0 V 1444"
           transform="translate(0,25.895969)"
           style="fill:#ffffff"
           id="path6" /><path
           fill="#000"
           d="m 61.5,1207.0029 v 32.0028 a 16,16 0 0 0 32,0 v -32.0028 a 16,16 0 0 0 -32,0"
           transform="translate(0,-98.294304)"
           opacity="1"
           style="fill:#000000"
           id="path7" /><path
           fill="#fff"
           d="M 92.5,1444 V 536.41182 a 16,16 0 0 1 32,0 V 1444"
           transform="translate(0,-5.7132063)"
           style="fill:#ffffff"
           id="path8" /><path
           fill="#fff"
           d="m 92.5,567.41182 v 18.21217 a 16,16 0 0 0 32,0 v -18.21217 a 16,16 0 0 0 -32,0"
           opacity="1"
           style="fill:#ffffff"
           id="path9" /><path
           fill="#fff"
           d="M 123.5,1444 V 549.90652 a 16,16 0 0 0 32,0 V 1444"
           transform="translate(0,26.91242)"
           style="fill:#ffffff"
           id="path10" /><path
           fill="#000"
           d="m 123.5,1188.3874 v 13.3873 a 16,16 0 0 0 32,0 v -13.3873 a 16,16 0 0 0 -32,0"
           transform="translate(0,-428.61899)"
           opacity="0.901099"
           style="opacity:0.901099;fill:#000000"
           id="path11" /><path
           fill="#fff"
           d="M 154.5,1444 V 505.87113 a 16,16 0 0 1 32,0 V 1444"
           transform="translate(0,-20.899555)"
           style="fill:#ffffff"
           id="path12" /><path
           fill="#fff"
           d="m 154.5,536.87113 v 21.40424 a 16,16 0 0 0 32,0 v -21.40424 a 16,16 0 0 0 -32,0"
           opacity="1"
           style="fill:#ffffff"
           id="path13" /><path
           fill="#fff"
           d="M 185.5,1444 V 562.34258 a 16,16 0 0 0 32,0 V 1444"
           transform="translate(0,5.7009029)"
           style="fill:#ffffff"
           id="path14" /><path
           fill="#000"
           d="m 185.5,1213.3017 v 38.3018 a 16,16 0 0 0 32,0 v -38.3018 a 16,16 0 0 0 -32,0"
           transform="translate(0,-239.93442)"
           opacity="1"
           style="fill:#000000"
           id="path15" /><path
           fill="#fff"
           d="M 216.5,1444 V 516.99897 a 16,16 0 0 1 32,0 V 1444"
           transform="translate(0,-28.790924)"
           style="fill:#ffffff"
           id="path16" /><path
           fill="#fff"
           d="m 216.5,547.99897 v 13.06562 a 16,16 0 0 0 32,0 v -13.06562 a 16,16 0 0 0 -32,0"
           opacity="0.967033"
           style="opacity:0.967033;fill:#ffffff"
           id="path17" /><path
           fill="#fff"
           d="M 247.5,1444 V 560.49683 a 16,16 0 0 0 32,0 V 1444"
           transform="translate(0,2.6255989)"
           style="fill:#ffffff"
           id="path18" /><path
           fill="#000"
           d="m 247.5,1208.3363 v 33.3363 a 16,16 0 0 0 32,0 v -33.3363 a 16,16 0 0 0 -32,0"
           transform="translate(0,-520.84387)"
           opacity="0.901099"
           style="opacity:0.901099;fill:#000000"
           id="path19" /><path
           fill="#fff"
           d="M 278.5,1444 V 505.79253 a 16,16 0 0 1 32,0 V 1444"
           transform="translate(0,-36.580563)"
           style="fill:#ffffff"
           id="path20" /><path
           fill="#fff"
           d="m 278.5,536.79253 v 11.05499 a 16,16 0 0 0 32,0 v -11.05499 a 16,16 0 0 0 -32,0"
           opacity="0.835165"
           style="opacity:0.835165;fill:#ffffff"
           id="path21" /><path
           fill="#fff"
           d="M 309.5,1444 V 548.12026 a 16,16 0 0 0 32,0 V 1444"
           transform="translate(0,36.358498)"
           style="fill:#ffffff"
           id="path22" /><path
           fill="#000"
           d="m 309.5,1198.3906 v 23.3906 a 16,16 0 0 0 32,0 v -23.3906 a 16,16 0 0 0 -32,0"
           transform="translate(0,-1162.2588)"
           opacity="0.10989"
           style="opacity:0.10989;fill:#000000"
           id="path23" /><path
           fill="#fff"
           d="M 340.5,1444 V 492.67489 a 16,16 0 0 1 32,0 V 1444"
           transform="translate(0,-33.882046)"
           style="fill:#ffffff"
           id="path24" /><path
           fill="#fff"
           d="m 340.5,523.67489 v 38.48795 a 16,16 0 0 0 32,0 v -38.48795 a 16,16 0 0 0 -32,0"
           opacity="1"
           style="fill:#ffffff"
           id="path25" /><path
           fill="#fff"
           d="M 371.5,1444 V 534.81594 a 16,16 0 0 0 32,0 V 1444"
           transform="translate(0,2.6684728)"
           style="fill:#ffffff"
           id="path26" /><path
           fill="#000"
           d="m 371.5,1192.858 v 17.8579 a 16,16 0 0 0 32,0 v -17.8579 a 16,16 0 0 0 -32,0"
           transform="translate(0,-131.04213)"
           opacity="1"
           style="fill:#000000"
           id="path27" /><path
           fill="#fff"
           d="M 402.5,1444 V 518.54483 a 16,16 0 0 1 32,0 V 1444"
           transform="translate(0,-10.766253)"
           style="fill:#ffffff"
           id="path28" /><path
           fill="#fff"
           d="m 402.5,549.54483 v 20.5647 a 16,16 0 0 0 32,0 v -20.5647 a 16,16 0 0 0 -32,0"
           opacity="0.571429"
           style="opacity:0.571429;fill:#ffffff"
           id="path29" /><path
           fill="#fff"
           d="M 433.5,1444 V 527.20969 a 16,16 0 0 0 32,0 V 1444"
           transform="translate(0,28.635895)"
           style="fill:#ffffff"
           id="path30" /><path
           fill="#000"
           d="m 433.5,1196.4856 v 21.4856 a 16,16 0 0 0 32,0 v -21.4856 a 16,16 0 0 0 -32,0"
           transform="translate(0,-267.00485)"
           opacity="1"
           style="fill:#000000"
           id="path31" /><path
           fill="#fff"
           d="M 464.5,1444 V 515.92245 a 16,16 0 0 1 32,0 V 1444"
           transform="translate(0,-1.4829361)"
           style="fill:#ffffff"
           id="path32" /><path
           fill="#fff"
           d="m 464.5,546.92245 v 33.50124 a 16,16 0 0 0 32,0 v -33.50124 a 16,16 0 0 0 -32,0"
           opacity="0.879121"
           style="opacity:0.879121;fill:#ffffff"
           id="path33" /><path
           fill="#fff"
           d="M 495.5,1444 V 531.37662 a 16,16 0 0 0 32,0 V 1444"
           transform="translate(0,24.759392)"
           style="fill:#ffffff"
           id="path34" /><path
           fill="#000"
           d="m 495.5,1204.3517 v 29.3517 a 16,16 0 0 0 32,0 v -29.3517 a 16,16 0 0 0 -32,0"
           transform="translate(0,-660.80017)"
           opacity="0.373626"
           style="opacity:0.373626;fill:#000000"
           id="path35" /><path
           fill="#fff"
           d="M 526.5,1444 V 501.78614 a 16,16 0 0 1 32,0 V 1444"
           transform="translate(0,-26.29468)"
           style="fill:#ffffff"
           id="path36" /><path
           fill="#fff"
           d="M 526.5,532.78614 V 571.479 a 16,16 0 0 0 32,0 v -38.69286 a 16,16 0 0 0 -32,0"
           opacity="0.307692"
           style="opacity:0.307692;fill:#ffffff"
           id="path37" /><path
           fill="#fff"
           d="M 557.5,1444 V 522.54246 a 16,16 0 0 0 32,0 V 1444"
           transform="translate(0,31.353956)"
           style="fill:#ffffff"
           id="path38" /><path
           fill="#000"
           d="m 557.5,1200.1351 v 25.1351 a 16,16 0 0 0 32,0 v -25.1351 a 16,16 0 0 0 -32,0"
           transform="translate(0,-758.69427)"
           opacity="0.483517"
           style="opacity:0.483517;fill:#000000"
           id="path39" /><path
           fill="#fff"
           d="M 588.5,1444 V 480.02463 a 16,16 0 0 1 32,0 V 1444"
           transform="translate(0,-28.845879)"
           style="fill:#ffffff"
           id="path40" /><path
           fill="#fff"
           d="m 588.5,511.02463 v 14.93157 a 16,16 0 0 0 32,0 v -14.93157 a 16,16 0 0 0 -32,0"
           opacity="0.527472"
           style="opacity:0.527472;fill:#ffffff"
           id="path41" /><path
           fill="#fff"
           d="M 619.5,1444 V 554.35248 a 16,16 0 0 0 32,0 V 1444"
           transform="translate(0,0.92860413)"
           style="fill:#ffffff"
           id="path42" /><path
           fill="#000"
           d="m 619.5,1212.6727 v 37.6727 a 16,16 0 0 0 32,0 v -37.6727 a 16,16 0 0 0 -32,0"
           transform="translate(0,-815.14838)"
           opacity="0.32967"
           style="opacity:0.32967;fill:#000000"
           id="path43" /><path
           fill="#fff"
           d="M 650.5,1444 V 509.21478 a 16,16 0 0 1 32,0 V 1444"
           transform="translate(0,-1.9965668)"
           style="fill:#ffffff"
           id="path44" /><path
           fill="#fff"
           d="m 650.5,540.21478 v 32.8005 a 16,16 0 0 0 32,0 v -32.8005 a 16,16 0 0 0 -32,0"
           opacity="0.0879123"
           style="opacity:0.0879123;fill:#ffffff"
           id="path45" /><path
           fill="#fff"
           d="M 681.5,1444 V 554.5714 a 16,16 0 0 0 32,0 V 1444"
           transform="translate(0,0.34520328)"
           style="fill:#ffffff"
           id="path46" /><path
           fill="#000"
           d="m 681.5,1206.1495 v 31.1495 a 16,16 0 0 0 32,0 v -31.1495 a 16,16 0 0 0 -32,0"
           transform="translate(0,-17.176853)"
           opacity="1"
           style="fill:#000000"
           id="path47" /><path
           fill="#fff"
           d="M 712.5,1444 V 508.58377 a 16,16 0 0 1 32,0 V 1444"
           transform="translate(0,-0.83536279)"
           style="fill:#ffffff"
           id="path48" /><path
           fill="#fff"
           d="m 712.5,539.58377 v 16.30974 a 16,16 0 0 0 32,0 v -16.30974 a 16,16 0 0 0 -32,0"
           opacity="1"
           style="fill:#ffffff"
           id="path49" /><path
           fill="#fff"
           d="M 743.5,1444 V 540.89972 a 16,16 0 0 0 32,0 V 1444"
           transform="translate(0,14.739761)"
           style="fill:#ffffff"
           id="path50" /><path
           fill="#000"
           d="m 743.5,1206.6347 v 31.6348 a 16,16 0 0 0 32,0 v -31.6348 a 16,16 0 0 0 -32,0"
           transform="translate(0,-133.0224)"
           opacity="1"
           style="fill:#000000"
           id="path51" /><path
           fill="#fff"
           d="M 774.5,1444 V 471.23366 a 16,16 0 0 1 32,0 V 1444"
           transform="translate(0,-27.691221)"
           style="fill:#ffffff"
           id="path52" /><path
           fill="#fff"
           d="m 774.5,502.23366 v 14.52731 a 16,16 0 0 0 32,0 v -14.52731 a 16,16 0 0 0 -32,0"
           opacity="0.989011"
           style="opacity:0.989011;fill:#ffffff"
           id="path53" /><path
           fill="#fff"
           d="M 805.5,1444 V 539.50091 a 16,16 0 0 0 32,0 V 1444"
           transform="translate(0,41.291351)"
           style="fill:#ffffff"
           id="path54" /><path
           fill="#000"
           d="m 805.5,1206.4056 v 31.4057 a 16,16 0 0 0 32,0 v -31.4057 a 16,16 0 0 0 -32,0"
           transform="translate(0,-470.03879)"
           opacity="0.857143"
           style="opacity:0.857143;fill:#000000"
           id="path55" /><path
           fill="#fff"
           d="M 836.5,1444 V 519.63448 a 16,16 0 0 1 32,0 V 1444"
           transform="translate(0,-24.448526)"
           style="fill:#ffffff"
           id="path56" /><path
           fill="#fff"
           d="m 836.5,550.63448 v 31.36197 a 16,16 0 0 0 32,0 v -31.36197 a 16,16 0 0 0 -32,0"
           opacity="1"
           style="fill:#ffffff"
           id="path57" /><path
           fill="#fff"
           d="M 867.5,1444 V 561.79096 a 16,16 0 0 0 32,0 V 1444"
           transform="translate(0,25.896957)"
           style="fill:#ffffff"
           id="path58" /><path
           fill="#000"
           d="m 867.5,1204.1724 v 29.1724 a 16,16 0 0 0 32,0 v -29.1724 a 16,16 0 0 0 -32,0"
           transform="translate(0,-325.08005)"
           opacity="1"
           style="fill:#000000"
           id="path59" /><path
           fill="#fff"
           d="M 898.5,1444 V 531.75005 a 16,16 0 0 1 32,0 V 1444"
           transform="translate(0,-0.03894728)"
           style="fill:#ffffff"
           id="path60" /><path
           fill="#fff"
           d="m 898.5,562.75005 v 22.87744 a 16,16 0 0 0 32,0 v -22.87744 a 16,16 0 0 0 -32,0"
           opacity="0.945055"
           style="opacity:0.945055;fill:#ffffff"
           id="path61" /><path
           fill="#fff"
           d="M 929.5,1444 V 570.60968 a 16,16 0 0 0 32,0 V 1444"
           transform="translate(0,7.7456183)"
           style="fill:#ffffff"
           id="path62" /><path
           fill="#000"
           d="m 929.5,1208.8768 v 33.8768 a 16,16 0 0 0 32,0 v -33.8768 a 16,16 0 0 0 -32,0"
           transform="translate(0,-180.14421)"
           opacity="1"
           style="fill:#000000"
           id="path63" /><path
           fill="#fff"
           d="M 960.5,1444 V 492.14578 a 16,16 0 0 1 32,0 V 1444"
           transform="translate(0,-23.308132)"
           style="fill:#ffffff"
           id="path64" /><path
           fill="#fff"
           d="m 960.5,523.14578 v 34.3699 a 16,16 0 0 0 32,0 v -34.3699 a 16,16 0 0 0 -32,0"
           opacity="1"
           style="fill:#ffffff"
           id="path65" /><path
           fill="#fff"
           d="M 991.5,1444 V 568.44935 a 16,16 0 0 0 32,0 V 1444"
           transform="translate(0,26.291019)"
           style="fill:#ffffff"
           id="path66" /><path
           fill="#000"
           d="m 991.5,1204.1077 v 29.1078 a 16,16 0 0 0 32,0 v -29.1078 a 16,16 0 0 0 -32,0"
           transform="translate(0,-462.56824)"
           opacity="0.747253"
           style="opacity:0.747253;fill:#000000"
           id="path67" /><path
           fill="#fff"
           d="M 1022.5,1444 V 539.88636 a 16,16 0 0 1 32,0 V 1444"
           transform="translate(0,-0.60319179)"
           style="fill:#ffffff"
           id="path68" /><path
           fill="#fff"
           d="m 1022.5,570.88636 v 27.7641 a 16,16 0 0 0 32,0 v -27.7641 a 16,16 0 0 0 -32,0"
           opacity="0.615384"
           style="opacity:0.615384;fill:#ffffff"
           id="path69" /><path
           fill="#fff"
           d="M 1053.5,1444 V 578.35403 a 16,16 0 0 0 32,0 V 1444"
           transform="translate(0,37.857655)"
           style="fill:#ffffff"
           id="path70" /><path
           fill="#000"
           d="m 1053.5,1210.0508 v 35.0508 a 16,16 0 0 0 32,0 v -35.0508 a 16,16 0 0 0 -32,0"
           transform="translate(0,-189.03159)"
           opacity="1"
           style="fill:#000000"
           id="path71" /><path
           fill="#fff"
           d="M 1084.5,1444 V 541.9056 a 16,16 0 0 1 32,0 V 1444"
           transform="translate(0,-33.861839)"
           style="fill:#ffffff"
           id="path72" /><path
           fill="#fff"
           d="m 1084.5,572.9056 v 30.17418 a 16,16 0 0 0 32,0 V 572.9056 a 16,16 0 0 0 -32,0"
           opacity="0.549451"
           style="opacity:0.549451;fill:#ffffff"
           id="path73" /><path
           fill="#fff"
           d="M 1115.5,1444 V 577.03281 a 16,16 0 0 0 32,0 V 1444"
           transform="translate(0,24.985386)"
           style="fill:#ffffff"
           id="path74" /><path
           fill="#000"
           d="m 1115.5,1189.7375 v 14.7374 a 16,16 0 0 0 32,0 v -14.7374 a 16,16 0 0 0 -32,0"
           transform="translate(0,-869.5592)"
           opacity="0.483517"
           style="opacity:0.483517;fill:#000000"
           id="path75" /><path
           fill="#fff"
           d="M 1146.5,1444 V 529.1164 a 16,16 0 0 1 32,0 V 1444"
           transform="translate(0,-4.3410769)"
           style="fill:#ffffff"
           id="path76" /><path
           fill="#fff"
           d="m 1146.5,560.1164 v 23.9832 a 16,16 0 0 0 32,0 v -23.9832 a 16,16 0 0 0 -32,0"
           opacity="1"
           style="fill:#ffffff"
           id="path77" /><path
           fill="#fff"
           d="M 1177.5,1444 V 568.08207 a 16,16 0 0 0 32,0 V 1444"
           transform="translate(0,25.847095)"
           style="fill:#ffffff"
           id="path78" /><path
           fill="#000"
           d="m 1177.5,1199.4886 v 24.4886 a 16,16 0 0 0 32,0 v -24.4886 a 16,16 0 0 0 -32,0"
           transform="translate(0,-479.52206)"
           opacity="0.703297"
           style="opacity:0.703297;fill:#000000"
           id="path79" /><path
           fill="#fff"
           d="M 1208.5,1444 V 557.16689 a 16,16 0 0 1 32,0 V 1444"
           transform="translate(0,-12.53026)"
           style="fill:#ffffff"
           id="path80" /><path
           fill="#fff"
           d="m 1208.5,588.16689 v 29.24155 a 16,16 0 0 0 32,0 v -29.24155 a 16,16 0 0 0 -32,0"
           opacity="0.571429"
           style="opacity:0.571429;fill:#ffffff"
           id="path81" /><path
           fill="#fff"
           d="M 1239.5,1444 V 580.60388 a 16,16 0 0 0 32,0 V 1444"
           transform="translate(0,28.427376)"
           style="fill:#ffffff"
           id="path82" /><path
           fill="#000"
           d="m 1239.5,1210.3383 v 35.3382 a 16,16 0 0 0 32,0 v -35.3382 a 16,16 0 0 0 -32,0"
           transform="translate(0,-745.35504)"
           opacity="0.439561"
           style="opacity:0.439561;fill:#000000"
           id="path83" /><path
           fill="#fff"
           d="M 1270.5,1444 V 542.49969 a 16,16 0 0 1 32,0 V 1444"
           transform="translate(0,-27.726189)"
           style="fill:#ffffff"
           id="path84" /><path
           fill="#fff"
           d="m 1270.5,573.49969 v 33.9156 a 16,16 0 0 0 32,0 v -33.9156 a 16,16 0 0 0 -32,0"
           opacity="0.461538"
           style="opacity:0.461538;fill:#ffffff"
           id="path85" /><path
           fill="#fff"
           d="M 1301.5,1444 V 570.09872 a 16,16 0 0 0 32,0 V 1444"
           transform="translate(0,7.9886379)"
           style="fill:#ffffff"
           id="path86" /><path
           fill="#000"
           d="m 1301.5,1206.1022 v 31.1021 a 16,16 0 0 0 32,0 v -31.1021 a 16,16 0 0 0 -32,0"
           transform="translate(0,-1140.1979)"
           opacity="0.263736"
           style="opacity:0.263736;fill:#000000"
           id="path87" /><path
           fill="#fff"
           d="M 1332.5,1444 V 543.06409 a 16,16 0 0 1 32,0 V 1444"
           transform="translate(0,-0.03381157)"
           style="fill:#ffffff"
           id="path88" /><path
           fill="#fff"
           d="m 1332.5,574.06409 v 23.6295 a 16,16 0 0 0 32,0 v -23.6295 a 16,16 0 0 0 -32,0"
           opacity="0.0659335"
           style="opacity:0.0659335;fill:#ffffff"
           id="path89" /><path
           fill="#fff"
           d="M 1363.5,1444 V 570.00483 a 16,16 0 0 0 32,0 V 1444"
           transform="translate(0,1.9478104)"
           style="fill:#ffffff"
           id="path90" /><path
           fill="#000"
           d="m 1363.5,1193.7334 v 18.7334 a 16,16 0 0 0 32,0 v -18.7334 a 16,16 0 0 0 -32,0"
           transform="translate(0,-39.767155)"
           opacity="1"
           style="fill:#000000"
           id="path91" /><path
           fill="#fff"
           d="M 1394.5,1444 V 562.26258 a 16,16 0 0 1 32,0 V 1444"
           transform="translate(0,-1.3256114)"
           style="fill:#ffffff"
           id="path92" /><path
           fill="#fff"
           d="m 1394.5,593.26258 v 28.15069 a 16,16 0 0 0 32,0 v -28.15069 a 16,16 0 0 0 -32,0"
           opacity="1"
           style="fill:#ffffff"
           id="path93" /><path
           fill="#fff"
           d="M 1425.5,1444 V 592.9138 a 16,16 0 0 0 32,0 V 1444"
           transform="translate(0,21.257391)"
           style="fill:#ffffff"
           id="path94" /><path
           fill="#000"
           d="m 1425.5,1185.7724 v 10.7723 a 16,16 0 0 0 32,0 v -10.7723 a 16,16 0 0 0 -32,0"
           transform="translate(0,-252.93689)"
           opacity="1"
           style="fill:#000000"
           id="path95" /><path
           fill="#fff"
           d="M 1456.5,1444 V 547.77263 a 16,16 0 0 1 32,0 V 1444"
           transform="translate(0,-25.009035)"
           style="fill:#ffffff"
           id="path96" /><path
           fill="#fff"
           d="m 1456.5,578.77263 v 34.02856 a 16,16 0 0 0 32,0 v -34.02856 a 16,16 0 0 0 -32,0"
           opacity="0.703296"
           style="opacity:0.703296;fill:#ffffff"
           id="path97" /><path
           fill="#fff"
           d="M 1487.5,1444 V 581.56588 a 16,16 0 0 0 32,0 V 1444"
           transform="translate(0,11.682027)"
           style="fill:#ffffff"
           id="path98" /><path
           fill="#000"
           d="m 1487.5,1196.5967 v 21.5968 a 16,16 0 0 0 32,0 v -21.5968 a 16,16 0 0 0 -32,0"
           transform="translate(0,-441.76886)"
           opacity="0.813187"
           style="opacity:0.813187;fill:#000000"
           id="path99" /><path
           fill="#fff"
           d="M 1518.5,1444 V 531.5282 a 16,16 0 0 1 32,0 V 1444"
           transform="translate(0,-11.083012)"
           style="fill:#ffffff"
           id="path100" /><path
           fill="#fff"
           d="m 1518.5,562.5282 v 13.24516 a 16,16 0 0 0 32,0 V 562.5282 a 16,16 0 0 0 -32,0"
           opacity="0.307692"
           style="opacity:0.307692;fill:#ffffff"
           id="path101" /><path
           fill="#fff"
           d="M 1549.5,1444 V 586.81865 a 16,16 0 0 0 32,0 V 1444"
           transform="translate(0,26.540956)"
           style="fill:#ffffff"
           id="path102" /><path
           fill="#000"
           d="m 1549.5,1205.4203 v 30.4202 a 16,16 0 0 0 32,0 v -30.4202 a 16,16 0 0 0 -32,0"
           transform="translate(0,-276.04105)"
           opacity="0.989011"
           style="opacity:0.989011;fill:#000000"
           id="path103" /><path
           fill="#fff"
           d="M 1580.5,1444 V 538.31448 a 16,16 0 0 1 32,0 V 1444"
           transform="translate(0,-0.75628483)"
           style="fill:#ffffff"
           id="path104" /><path
           fill="#fff"
           d="m 1580.5,569.31448 v 39.74084 a 16,16 0 0 0 32,0 v -39.74084 a 16,16 0 0 0 -32,0"
           opacity="1"
           style="fill:#ffffff"
           id="path105" /><path
           fill="#fff"
           d="M 1611.5,1444 V 597.62151 a 16,16 0 0 0 32,0 V 1444"
           transform="translate(0,34.463306)"
           style="fill:#ffffff"
           id="path106" /><path
           fill="#000"
           d="m 1611.5,1186.9351 v 11.935 a 16,16 0 0 0 32,0 v -11.935 a 16,16 0 0 0 -32,0"
           transform="translate(0,-707.77679)"
           opacity="0.285714"
           style="opacity:0.285714;fill:#000000"
           id="path107" /><path
           fill="#fff"
           d="M 1642.5,1444 V 554.18682 a 16,16 0 0 1 32,0 V 1444"
           transform="translate(0,-35.865341)"
           style="fill:#ffffff"
           id="path108" /><path
           fill="#fff"
           d="m 1642.5,585.18682 v 29.10873 a 16,16 0 0 0 32,0 v -29.10873 a 16,16 0 0 0 -32,0"
           opacity="0.153846"
           style="opacity:0.153846;fill:#ffffff"
           id="path109" /><path
           fill="#fff"
           d="M 1673.5,1444 V 581.25272 a 16,16 0 0 0 32,0 V 1444"
           transform="translate(0,46.395302)"
           style="fill:#ffffff"
           id="path110" /><path
           fill="#000"
           d="m 1673.5,1203.3608 v 28.3607 a 16,16 0 0 0 32,0 v -28.3607 a 16,16 0 0 0 -32,0"
           transform="translate(0,-517.57477)"
           opacity="0.725275"
           style="opacity:0.725275;fill:#000000"
           id="path111" /><path
           fill="#fff"
           d="M 1704.5,1444 V 536.26858 a 16,16 0 0 1 32,0 V 1444"
           transform="translate(0,-29.922112)"
           style="fill:#ffffff"
           id="path112" /><path
           fill="#fff"
           d="m 1704.5,567.26858 v 14.01768 a 16,16 0 0 0 32,0 v -14.01768 a 16,16 0 0 0 -32,0"
           opacity="0.54945"
           style="opacity:0.54945;fill:#ffffff"
           id="path113" /><path
           fill="#fff"
           d="M 1735.5,1444 V 603.20916 a 16,16 0 0 0 32,0 V 1444"
           transform="translate(0,17.183704)"
           style="fill:#ffffff"
           id="path114" /><path
           fill="#000"
           d="m 1735.5,1198.9836 v 23.9837 a 16,16 0 0 0 32,0 v -23.9837 a 16,16 0 0 0 -32,0"
           transform="translate(0,-211.86966)"
           opacity="1"
           style="fill:#000000"
           id="path115" /><path
           fill="#fff"
           d="M 1766.5,1444 V 578.53382 a 16,16 0 0 1 32,0 V 1444"
           transform="translate(0,-20.995531)"
           style="fill:#ffffff"
           id="path116" /><path
           fill="#fff"
           d="m 1766.5,609.53382 v 12.8797 a 16,16 0 0 0 32,0 v -12.8797 a 16,16 0 0 0 -32,0"
           opacity="1"
           style="fill:#ffffff"
           id="path117" /><path
           fill="#fff"
           d="M 1797.5,1444 V 579.96565 a 16,16 0 0 0 32,0 V 1444"
           transform="translate(0,26.872196)"
           style="fill:#ffffff"
           id="path118" /><path
           fill="#000"
           d="m 1797.5,1203.2745 v 28.2745 a 16,16 0 0 0 32,0 v -28.2745 a 16,16 0 0 0 -32,0"
           transform="translate(0,-38.851498)"
           opacity="1"
           style="fill:#000000"
           id="path119" /><path
           fill="#fff"
           d="M 1828.5,1444 V 535.56808 a 16,16 0 0 1 32,0 V 1444"
           transform="translate(0,-43.02813)"
           style="fill:#ffffff"
           id="path120" /><path
           fill="#fff"
           d="m 1828.5,566.56808 v 16.25829 a 16,16 0 0 0 32,0 v -16.25829 a 16,16 0 0 0 -32,0"
           opacity="0.791209"
           style="opacity:0.791209;fill:#ffffff"
           id="path121" /><path
           fill="#fff"
           d="M 1859.5,1444 V 558.63056 a 16,16 0 0 0 32,0 V 1444"
           transform="translate(0,22.466227)"
           style="fill:#ffffff"
           id="path122" /><path
           fill="#000"
           d="m 1859.5,1193.6779 v 18.6778 a 16,16 0 0 0 32,0 v -18.6778 a 16,16 0 0 0 -32,0"
           transform="translate(0,-690.74243)"
           opacity="0.659341"
           style="opacity:0.659341;fill:#000000"
           id="path123" /><path
           fill="#fff"
           d="M 1890.5,1444 V 543.36778 a 16,16 0 0 1 32,0 V 1444"
           transform="translate(0,-42.599678)"
           style="fill:#ffffff"
           id="path124" /><path
           fill="#fff"
           d="m 1890.5,574.36778 v 22.47563 a 16,16 0 0 0 32,0 v -22.47563 a 16,16 0 0 0 -32,0"
           opacity="0.791208"
           style="opacity:0.791208;fill:#ffffff"
           id="path125" /><path
           fill="#fff"
           d="M 1921.5,1444 V 564.56578 a 16,16 0 0 0 32,0 V 1444"
           transform="translate(0,3.745615)"
           style="fill:#ffffff"
           id="path126" /><path
           fill="#000"
           d="m 1921.5,1200.1929 v 25.1929 a 16,16 0 0 0 32,0 v -25.1929 a 16,16 0 0 0 -32,0"
           transform="translate(0,-874.7486)"
           opacity="0.197802"
           style="opacity:0.197802;fill:#000000"
           id="path127" /><path
           fill="#fff"
           d="M 1952.5,1444 V 523.36895 a 16,16 0 0 1 32,0 V 1444"
           transform="translate(0,-26.53392)"
           style="fill:#ffffff"
           id="path128" /><path
           fill="#fff"
           d="m 1952.5,554.36895 v 21.07968 a 16,16 0 0 0 32,0 v -21.07968 a 16,16 0 0 0 -32,0"
           opacity="0.395603"
           style="opacity:0.395603;fill:#ffffff"
           id="path129" /><path
           fill="#fff"
           d="M 1983.5,1444 V 543.81105 a 16,16 0 0 0 32,0 V 1444"
           transform="translate(0,0.58601761)"
           style="fill:#ffffff"
           id="path130" /><path
           fill="#000"
           d="m 1983.5,1210.3173 v 35.3173 a 16,16 0 0 0 32,0 v -35.3173 a 16,16 0 0 0 -32,0"
           transform="translate(0,-886.94366)"
           opacity="0.131868"
           style="opacity:0.131868;fill:#000000"
           id="path131" /></g></mask><linearGradient
       xlink:href="#linearGradient268"
       id="linearGradient269"
       x1="1280.4072"
       y1="2001.6561"
       x2="1280.4072"
       y2="-559.15833"
       gradientUnits="userSpaceOnUse" /><linearGradient
       xlink:href="#linearGradient268"
       id="linearGradient2"
       gradientUnits="userSpaceOnUse"
       x1="1280.4072"
       y1="2001.6561"
       x2="1280.4072"
       y2="-559.15833" /></defs><g
     id="layer1"
     style="display:none"><g
       style="display:inline;shape-rendering:auto"
       id="g262"
       transform="matrix(1.3103707,0,0,1.2835874,3.2360416,-27.635973)"><g
         id="g133"
         style="display:inline"><defs
           id="defs131" /><rect
           mask="url(#ldbk-photon-6vdff58d2hl-mask)"
           fill="url(#ldbk-photon-6vdff58d2hl-lg)"
           height="1144"
           width="1953"
           y="0"
           x="0"
           style="display:inline;fill:url(#ldbk-photon-6vdff58d2hl-lg)"
           id="rect131"
           transform="translate(13.283039,-10.170152)" /><g
           id="g132"
           style="display:inline" /></g></g></g><g
     id="layer7"><rect
       style="display:inline;fill:url(#linearGradient2);stroke-width:1.00157"
       id="rect268"
       width="2560.8145"
       height="1442.4978"
       x="0"
       y="0" /><rect
       style="display:inline;fill:url(#linearGradient269);stroke-width:1.00157"
       id="rect275"
       width="2560.8145"
       height="1442.4978"
       x="0"
       y="0" /></g><g
     id="layer8"><path
       style="fill:#ffffff;fill-opacity:1;stroke-width:1.00157"
       d="m 0,194.53444 c 80.501386,15.23001 38.649841,-70.09787 76.873917,-71.41059 41.089243,-1.41112 14.851744,165.98199 61.257343,166.65683 51.36885,0.74703 7.6359,-139.46605 82.28505,-140.81064 74.64915,-1.34458 45.8212,178.1376 102.52248,175.14719 56.70129,-2.99039 8.52067,-140.35223 89.223,-143.68764 80.70233,-3.33541 -15.7303,205.50457 72.60642,204.94888 88.33673,-0.5557 37.46758,-142.87741 97.77625,-162.17297 60.30867,-19.29556 13.20081,134.40843 87.33778,128.53772 74.13697,-5.87071 30.87779,-195.23026 84.2851,-200.47485 53.4073,-5.24459 35.01135,151.41984 84.5701,161.57047 49.55875,10.15064 23.08085,-139.55966 89.20424,-145.77277 66.12339,-6.21312 40.52293,78.39259 93.55572,76.14995 53.0328,-2.24264 44.2969,-75.29603 95.7314,-76.14995 51.4344,-0.85393 8.7958,159.42296 67.447,163.17848 58.6513,3.75552 14.3549,-121.5583 60.92,-124.01565 46.5651,-2.45735 -12.1789,185.61818 58.7443,187.11134 70.9232,1.49316 17.6225,-172.82641 71.7985,-174.05706 54.1759,-1.23066 34.6384,94.4442 71.0237,93.08339 36.3854,-1.36081 1.5774,-102.44866 72.5734,-99.61053 70.996,2.83813 9.6368,156.4758 66.3592,157.73921 56.7224,1.26342 33.9562,-127.41579 78.4577,-128.63103 44.5015,-1.21525 10.8987,83.43043 65.1394,81.30926 54.2407,-2.12117 30.8075,-157.48422 81.0934,-157.75521 50.2858,-0.27099 30.9079,162.07134 91.6439,161.69082 60.736,-0.38052 27.1968,-107.10314 84.9848,-111.58148 57.788,-4.47833 33.4861,73.56191 79.6774,66.71927 46.1913,-6.84263 3.8549,-93.23565 66.9098,-95.52208 63.055,-2.28643 -24.2692,180.14531 83.7009,171.61738 107.9701,-8.52792 13.4995,-205.20534 87.5112,-214.28511 74.0118,-9.07978 36.1759,190.83221 87.2152,186.59668 51.0392,-4.23553 11.1872,-161.23477 81.4732,-160.86279 59.1686,0.31315 18.8379,109.93948 86.1434,108.93227 1.299,-0.0194 2.6762,-275.5123846 2.6762,-275.5123846 L 2.1757132,5.3846153e-6 Z"
       id="path273" /><path
       style="display:none;fill:#ffffff;fill-opacity:1;stroke-width:1.00157"
       d="m 5.3940351,1159.0538 c 80.5012999,-15.23 37.5618999,70.9137 75.7859999,72.2264 41.089305,1.4112 14.8518,-165.9819 61.257365,-166.6568 51.36885,-0.747 7.6359,139.4661 82.28505,140.8107 74.64915,1.3445 45.8212,-178.1376 102.52248,-175.1472 56.70129,2.9904 8.52067,140.3522 89.223,143.6876 80.70233,3.3354 -15.7303,-205.50465 72.60642,-204.94895 88.33673,0.5557 37.46758,142.87745 97.77625,162.17305 60.30867,19.2956 13.20081,-134.40845 87.33778,-128.5377 74.13697,5.8707 30.87779,195.2302 84.2851,200.4748 53.4073,5.2446 35.01135,-151.4198 84.5701,-161.5704 49.55875,-10.1507 23.08085,139.5596 89.20424,145.7727 66.12339,6.2131 40.52293,-78.3926 93.55568,-76.1499 53.0329,2.2426 44.297,75.296 95.7315,76.1499 51.4344,0.854 8.7958,-159.4229 67.447,-163.1785 58.6513,-3.7555 14.3549,121.5583 60.92,124.0157 46.5651,2.4573 10.898,-190.23369 58.7443,-187.11139 47.8463,3.1222 17.6225,172.82649 71.7985,174.05709 54.1759,1.2307 -13.2462,-92.5211 75.0622,-88.6603 88.3083,3.8608 -2.4611,98.0256 68.5349,95.1875 70.996,-2.8382 9.6368,-156.47585 66.3592,-157.73935 56.7224,-1.2634 33.1871,119.72355 76.15,124.01575 42.963,4.2922 55.7832,-128.06565 112.0492,-54.9368 28.1415,36.5753 30.5342,155.5952 81.5893,147.4046 51.0551,-8.1905 -49.3136,-259.83439 71.7985,-263.26139 121.112,-3.427 5.0212,240.34419 80.5014,250.20709 75.4803,9.863 8.8709,-118.9465 75.0621,-117.4885 66.1913,1.458 12.3165,104.7741 44.6021,105.5221 32.2857,0.748 -16.5769,-172.453 46.7778,-176.23285 63.3548,-3.7797 -12.6544,225.97465 104.4343,227.36215 117.0887,1.3874 7.7983,-152.9146 90.2921,-151.2121 82.4938,1.7025 -5.145,113.3644 53.305,151.2121 58.45,37.8477 84.7809,-120.274 138.1577,-81.5893 0.072,81.1112 -1.4612,293.3425 -1.4612,293.3425 L 4.3061351,1440.8086 Z"
       id="path275" /></g></svg>
